<?xml version="1.0" encoding="UTF-8" standalone="no"?>
<!-- Generator: Adobe Illustrator 22.1.0, SVG Export Plug-In . SVG Version: 6.00 Build 0) -->

<svg
   id="Calque_1"
   x="0px"
   y="0px"
   viewBox="0 0 390 175"
   style="enable-background:new 0 0 390 175;"
   xml:space="preserve"
   version="1.1"
   sodipodi:docname="eptm-logo.svg"
   inkscape:export-filename="/Users/zas/work/repo/edu/minicourse/maze-minilabor/img/eptm-logo.png"
   inkscape:export-xdpi="252.06"
   inkscape:export-ydpi="252.06"
   inkscape:version="1.1.1 (c3084ef, 2021-09-22)"
   xmlns:inkscape="http://www.inkscape.org/namespaces/inkscape"
   xmlns:sodipodi="http://sodipodi.sourceforge.net/DTD/sodipodi-0.dtd"
   xmlns="http://www.w3.org/2000/svg"
   xmlns:svg="http://www.w3.org/2000/svg"><defs
   id="defs873" /><sodipodi:namedview
   id="namedview871"
   pagecolor="#ffffff"
   bordercolor="#999999"
   borderopacity="1"
   inkscape:pageshadow="0"
   inkscape:pageopacity="0"
   inkscape:pagecheckerboard="0"
   showgrid="false"
   inkscape:zoom="1.4653846"
   inkscape:cx="241.91601"
   inkscape:cy="158.66142"
   inkscape:window-width="1312"
   inkscape:window-height="969"
   inkscape:window-x="0"
   inkscape:window-y="25"
   inkscape:window-maximized="0"
   inkscape:current-layer="Calque_1" /> <style
   type="text/css"
   id="style824"> .st0{fill:#1C0000;} .st1{fill:#C10012;} .st2{fill:#FFFFFF;} .st3{fill:#575656;} .st4{fill:#898988;} </style> <g
   id="g868"> <g
   id="g840"> <path
   class="st0"
   d="M156.7,65.8h-11.3v20.5h11.7c7.3,0,11.7-4.3,11.7-10v-0.1C168.7,69.4,164.1,65.8,156.7,65.8z"
   id="path826" /> <path
   class="st0"
   d="M243.8,6.9L62.2,28.7v104.7h181.5V20.7V6.9z M118.1,119.4H82.2c-4.1,0-7.3-3.2-7.3-7.3V59.9 c0-4.1,3.2-7.3,7.3-7.3h35.3c3.6,0,6.6,3,6.6,6.6s-3,6.5-6.6,6.5H89.3v13.6h16.8c3.6,0,6.6,3,6.6,6.6c0,3.6-3,6.5-6.6,6.5H89.3v14 h28.5c3.6,0,6.6,3,6.6,6.6C124.7,116.6,121.7,119.4,118.1,119.4z M183.7,75.8c0,15.4-12,23.5-27.1,23.5h-11.1v13.2 c0,4.1-3.2,7.3-7.3,7.3s-7.3-3.2-7.3-7.3V59.9c0-4.1,3.2-7.3,7.3-7.3h19.9c16,0,25.6,9.5,25.6,23.1V75.8z M233.6,66.2h-14.2v46.3 c0,4.1-3.2,7.3-7.3,7.3s-7.3-3.2-7.3-7.3V66.2h-11.3c-3.7,0-6.9-3-6.9-6.9c0-3.7,3-6.9,6.9-6.9h40.2c3.7,0,6.9,3,6.9,6.9 C240.5,63.2,237.3,66.2,233.6,66.2z"
   id="path828" /> <path
   class="st1"
   d="M243.8,20.7v112.5h82.9v-93L243.8,20.7z M315.4,112.6c0,4.1-3.2,7.3-7.3,7.3c-4,0-7.2-3.4-7.2-7.3V79.3 L288,99.2c-1.7,2.3-3.4,3.7-6.1,3.7c-2.6,0-4.7-1.4-6.1-3.7l-12.7-19.5v33.1c0,4-3.2,7.2-7.2,7.2c-4,0-7.2-3.2-7.2-7.2V59.6 c0-4.1,3.2-7.3,7.3-7.3h1.7c3.2,0,5.4,1.7,6.6,3.7l17.7,28.9l17.9-29c1.7-2.5,3.6-3.7,6.6-3.7h1.7c4.1,0,7.3,3.2,7.3,7.3v53.2 h-0.3V112.6z"
   id="path830" /> <path
   class="st2"
   d="M118.1,106.4H89.6v-14h16.8c3.6,0,6.6-2.9,6.6-6.5s-3-6.6-6.6-6.6H89.6V65.7h28.2c3.6,0,6.6-2.9,6.6-6.5 c0-3.6-3-6.6-6.6-6.6H82.5c-4.1,0-7.3,3.2-7.3,7.3V112c0,4.1,3.2,7.3,7.3,7.3h35.8c3.6,0,6.6-2.9,6.6-6.5 C124.7,109.3,121.7,106.4,118.1,106.4z"
   id="path832" /> <path
   class="st2"
   d="M158,52.6H138c-4.1,0-7.3,3.2-7.3,7.3v52.7c0,4.1,3.2,7.3,7.3,7.3s7.3-3.2,7.3-7.3V99.4h11.1 c15,0,27.1-8.1,27.1-23.5v-0.1C183.7,62.1,173.9,52.6,158,52.6z M168.7,76.3c0,5.8-4.3,10-11.7,10h-11.7V65.8h11.3 c7.3,0,12,3.6,12,10v0.4H168.7z"
   id="path834" /> <path
   class="st2"
   d="M233.6,52.6h-40.2c-3.7,0-6.9,3-6.9,6.9c0,3.7,3,6.9,6.9,6.9h11.3v46.3c0,4.1,3.2,7.3,7.3,7.3 c4.1,0,7.3-3.2,7.3-7.3V66.2h14.2c3.7,0,6.9-3,6.9-6.9C240.5,55.6,237.3,52.6,233.6,52.6z"
   id="path836" /> <path
   class="st2"
   d="M308.1,52.2h-1.7c-3,0-5,1.2-6.6,3.7l-17.9,29L264.3,56c-1.2-2.2-3.6-3.7-6.6-3.7H256c-4.1,0-7.3,3.2-7.3,7.3 V113c0,4,3.2,7.2,7.2,7.2c4,0,7.2-3.2,7.2-7.2V79.7l12.7,19.5c1.7,2.3,3.4,3.7,6.1,3.7c2.6,0,4.7-1.4,6.1-3.7l12.9-19.9v33.3 c0,4,3.2,7.3,7.2,7.3c4.1,0,7.3-3.2,7.3-7.3V59.6C315.4,55.5,312.3,52.2,308.1,52.2z"
   id="path838" /> </g> <g
   id="g866"> <path
   class="st3"
   d="M287.9,152.7h-2.5v4.7h2.8c1.7,0,2.8-1.1,2.8-2.3l0,0C290.8,153.7,289.7,152.7,287.9,152.7z"
   id="path842" /> <path
   class="st3"
   d="M307.7,139.4l-41.4,5v23.8h41.4v-25.6V139.4z M279.1,165h-8.3c-1,0-1.7-0.7-1.7-1.7v-11.8 c0-1,0.7-1.7,1.7-1.7h8.1c1,0,1.4,0.7,1.4,1.4c0,1-0.7,1.4-1.4,1.4h-6.5v3h4c1,0,1.4,0.7,1.4,1.4c0,1-0.7,1.4-1.4,1.4h-4v3.2h6.5 c1,0,1.4,0.7,1.4,1.4C280.5,164.4,279.9,165,279.1,165z M294.1,155.1c0,3.6-2.8,5.4-6.1,5.4h-2.5v3c0,1-0.7,1.7-1.7,1.7 s-1.7-0.7-1.7-1.7v-12c0-1,0.7-1.7,1.7-1.7h4.5C291.8,149.7,294.1,151.9,294.1,155.1L294.1,155.1z M305.4,153h-3.2v10.6 c0,1-0.7,1.7-1.7,1.7s-1.7-0.7-1.7-1.7V153h-2.5c-1,0-1.7-0.7-1.7-1.7c0-1,0.7-1.7,1.7-1.7h9.1c1,0,1.7,0.7,1.7,1.7 C307,152.2,306.3,153,305.4,153z"
   id="path844" /> <g
   id="g848"> <path
   class="st4"
   d="M307.7,142.5v25.6h19v-21.2L307.7,142.5z M324.1,163.4c0,1-0.7,1.7-1.7,1.7s-1.7-0.7-1.7-1.7v-7.6l-2.9,4.5 c-0.4,0.6-0.7,1-1.4,1c-0.6,0-1.1-0.4-1.4-1l-2.9-4.5v7.6c0,1-0.7,1.7-1.7,1.7s-1.7-0.7-1.7-1.7v-12.2c0-1,0.7-1.7,1.7-1.7h0.4 c0.7,0,1.2,0.4,1.7,1l4.1,6.6l4.1-6.6c0.4-0.6,1-1,1.4-1h0.4c1,0,1.7,0.7,1.7,1.7v12.2H324.1z"
   id="path846" /> </g> <path
   class="st3"
   d="M215.4,158.6c-1,0-4.1,0-4.1,0l2.2-5l1,1.9c0,0,1-0.6,1.7-0.7c0.7-0.4,1-1.1,0.6-1.8c-0.4-0.7-1-2.2-1-2.2 c-0.4-1-1.1-1.2-1.9-1.2h-0.1c-1,0-1.7,0.6-1.9,1.2l-5.4,12c-0.1,0.1-0.1,0.6-0.1,0.7c0,1,0.7,1.7,1.7,1.7c0.7,0,1.2-0.4,1.7-1.1 l1.1-2.5h6.6c0,0,0-1,0-1.7S216.4,158.6,215.4,158.6z"
   id="path850" /> <path
   class="st3"
   d="M228.2,152.7c-1.2,1.8-2.8,4.3-2.8,4.3l-4.1-6.6c-0.4-0.6-1-1-1.7-1h-0.4c-1,0-1.7,0.7-1.7,1.7v12.2 c0,1,0.7,1.7,1.7,1.7c1,0,1.7-0.7,1.7-1.7v-7.6l2.9,4.5c0.4,0.6,0.7,1,1.4,1c0.6,0,1.1-0.4,1.4-1l2.5-4c0,0,0-2.2,0-3.4 C229.5,152.2,228.8,152.2,228.2,152.7z"
   id="path852" /> <path
   class="st3"
   d="M250.8,162.6c-0.1-0.6-0.6-0.7-1.1-0.7c-0.1,0-0.6,0-0.7,0c-1.9,0-3.2-1.2-3.2-3.7v-7.2c0-1-0.7-1.7-1.7-1.7 c-1,0-1.7,0.7-1.7,1.7v7.2c0,4.5,2.5,6.9,6.6,6.9c1.2,0,2.3-0.1,3.2-0.6c-0.1,0-0.1-0.1-0.4-0.1 C251.3,163.9,250.9,163.3,250.8,162.6z"
   id="path854" /> <path
   class="st3"
   d="M254.8,159.7c0.4,0.1,1,0,1-0.6c0-0.4,0-0.7,0-1.1v-7.2c0-1-0.7-1.7-1.7-1.7c-0.1,0-0.4,0-0.6,0 c-0.6,0.1-1,0.6-1.1,1.1c0,0.1-0.1,0.4-0.1,0.6v6.3v1c0,0.6,0,1-0.1,1.4c0.4-0.1,1-0.4,1.2-0.4 C253.8,159.3,254.2,159.6,254.8,159.7z"
   id="path856" /> <path
   class="st3"
   d="M203.6,162.1c-2.8,0-4.5-1.9-4.5-4.7l0,0c0-2.8,1.8-4.8,4.5-4.8c1.2,0,2.2,0.4,3,1.1c0.1,0.1,0.6,0.4,1.1,0.4 c1,0,1.7-0.7,1.7-1.7c0-0.6-0.4-1.1-0.7-1.2c-1.2-1-2.9-1.7-5.2-1.7c-4.7,0-8.1,3.6-8.1,7.8l0,0c0,4.5,3.4,7.7,7.8,7.7h0.4 c0,0,0.6-1.2,0.7-1.8C205.1,162.8,204.4,162.1,203.6,162.1z"
   id="path858" /> <path
   class="st3"
   d="M260.8,153.4c0.1,0.1,0.6,0.1,1,0.1c1,0,1.7-0.7,1.7-1.7c0-0.7-0.4-1.1-0.7-1.2c-1.4-1-3-1.4-4.8-1.4 c-0.6,0-1,0.4-1,1s0,2.2,0,2.2c0.1,0,0.6-0.1,1-0.1C258.6,152.4,259.7,153,260.8,153.4z"
   id="path860" /> <path
   class="st3"
   d="M259,155.7c-0.4,0-0.6-0.1-1-0.1c-0.6-0.1-1.2,0.1-1.2,1c0,0.6,0,2.2,0,2.2c0.1,0,0.4,0.1,0.7,0.1 c2.5,0.7,3,1.1,3,1.9l0,0c0,1-1,1.4-2.2,1.4c-1.4,0-2.8-0.6-4-1.4c-0.1-0.1-0.6-0.4-1-0.4c-1,0-1.7,0.7-1.7,1.7 c0,0.6,0.1,1.1,0.7,1.2c1.8,1.2,3.7,1.8,5.8,1.8c3.2,0,5.5-1.8,5.5-4.7l0,0C263.8,157.8,262.1,156.7,259,155.7z"
   id="path862" /> <path
   class="st3"
   d="M232.5,149.7c-1,0-1.7,0.7-1.7,1.7v12c0,1,0.7,1.7,1.7,1.7c1,0,1.7-0.7,1.7-1.7v-3h2.5c1.8,0,3.4-0.6,4.5-1.4 v-7.7c-1.1-1-2.3-1.4-4.1-1.4h-4.5V149.7z M239.5,155.1L239.5,155.1c0,1.4-1,2.3-2.8,2.3H234v-4.7h2.5 C238.4,152.7,239.5,153.7,239.5,155.1z"
   id="path864" /> </g> </g> </svg>
