<?xml version="1.0" encoding="UTF-8" standalone="no"?>
<svg
   viewBox="0 0 427.81454 122.13051"
   height="122.13051"
   width="427.81454"
   xml:space="preserve"
   version="1.1"
   id="svg2"
   sodipodi:docname="hei-defr.svg"
   inkscape:export-filename="/Users/zas/work/OneDrive - HESSO/pictures/logos/hei/hei-color-fr-de.png"
   inkscape:export-xdpi="300"
   inkscape:export-ydpi="300"
   inkscape:version="1.1.1 (c3084ef, 2021-09-22)"
   xmlns:inkscape="http://www.inkscape.org/namespaces/inkscape"
   xmlns:sodipodi="http://sodipodi.sourceforge.net/DTD/sodipodi-0.dtd"
   xmlns="http://www.w3.org/2000/svg"
   xmlns:svg="http://www.w3.org/2000/svg"
   xmlns:rdf="http://www.w3.org/1999/02/22-rdf-syntax-ns#"
   xmlns:cc="http://creativecommons.org/ns#"
   xmlns:dc="http://purl.org/dc/elements/1.1/"><sodipodi:namedview
     id="namedview94"
     pagecolor="#ffffff"
     bordercolor="#999999"
     borderopacity="1"
     inkscape:pageshadow="0"
     inkscape:pageopacity="0"
     inkscape:pagecheckerboard="0"
     showgrid="false"
     inkscape:zoom="1.8288"
     inkscape:cx="3.0074366"
     inkscape:cy="-0.82020997"
     inkscape:window-width="3440"
     inkscape:window-height="1359"
     inkscape:window-x="0"
     inkscape:window-y="25"
     inkscape:window-maximized="0"
     inkscape:current-layer="g12" /><metadata
     id="metadata8"><rdf:RDF><cc:Work
         rdf:about=""><dc:format>image/svg+xml</dc:format><dc:type
           rdf:resource="http://purl.org/dc/dcmitype/StillImage" /></cc:Work></rdf:RDF></metadata><defs
     id="defs6" /><g
     transform="matrix(1.25,0,0,-1.25,-197.18422,123.22413)"
     id="g10"><g
       transform="scale(0.1)"
       id="g12"><path
         id="path14"
         style="fill:#aa9f93;fill-opacity:1;fill-rule:nonzero;stroke:none"
         d="m 3555.88,481.559 c 0,12.972 2.76,18.652 11.86,37.48 0.55,1.164 185.1,394.16 185.1,394.16 12.64,26.176 24.81,51.207 52.88,51.207 23.59,0 41.35,-17.847 41.35,-41.433 0,-13.059 -4.12,-22.973 -8.6,-32.719 0,0 -192.59,-408.141 -192.7,-408.418 -10.6,-21.191 -21.55,-43.137 -49.18,-43.137 -22.77,0 -40.71,18.856 -40.71,42.86 m 178.69,442.972 c -1.05,-2.254 -185.67,-395.25 -185.67,-395.25 -10.03,-20.828 -14.38,-29.906 -14.38,-47.722 0,-36.008 27.26,-64.215 62.07,-64.215 40.74,0 56.73,31.742 68.37,54.965 l 192.8,408.863 c 5.43,11.641 10.7,24.371 10.7,41.801 0,35.144 -27.63,62.82 -62.74,62.82 -41.52,0 -58.65,-35.422 -71.15,-61.262" /><path
         id="path16"
         style="fill:#aa9f93;fill-opacity:1;fill-rule:nonzero;stroke:none"
         d="m 3732.63,481.559 c 0,12.972 2.72,18.652 11.85,37.48 0.53,1.164 185.13,394.16 185.13,394.16 12.67,26.149 24.79,51.207 52.85,51.207 23.56,0 41.48,-17.847 41.48,-41.433 0,-13.059 -4.12,-22.973 -8.77,-32.696 0,0 -192.49,-408.082 -192.72,-408.386 -10.53,-21.246 -21.46,-43.192 -49.14,-43.192 -22.87,0 -40.68,18.879 -40.68,42.86 M 3911.31,924.5 c -1.09,-2.223 -185.69,-395.219 -185.69,-395.219 -9.99,-20.851 -14.38,-29.906 -14.38,-47.722 0,-36.008 27.3,-64.215 62.07,-64.215 40.93,0 56.8,31.742 68.39,55.078 l 192.84,408.75 c 5.23,11.082 10.68,24.371 10.68,41.801 0,35.144 -27.56,62.82 -62.76,62.82 -41.55,0 -58.64,-35.449 -71.15,-61.293" /><path
         id="path18"
         style="fill:#aa9f93;fill-opacity:1;fill-rule:nonzero;stroke:none"
         d="m 4133,897.688 c -1.4,3.675 -1.98,6.457 -1.98,10.382 0,11.809 10.39,20.274 21.58,20.274 9.56,0 15.48,-6.18 19.21,-13.781 l 43.49,-116.872 43.62,116.872 c 3.61,7.601 9.55,13.781 19.1,13.781 11.28,0 21.59,-8.465 21.59,-20.274 0,-3.925 -0.57,-6.707 -1.93,-10.382 L 4236.13,741.16 c -3.7,-8.965 -8.48,-16.312 -20.83,-16.312 -12.36,0 -17.15,7.347 -20.82,16.312 L 4133,897.688" /><path
         id="path20"
         style="fill:#aa9f93;fill-opacity:1;fill-rule:nonzero;stroke:none"
         d="m 4338.13,795.906 h 53.41 l -26.17,81.453 h -0.51 z m -3.08,102.004 c 4.75,12.867 15.73,23.281 30,23.281 14.97,0 25.35,-9.832 30.12,-23.281 l 55.08,-152.906 c 1.72,-4.535 2.25,-8.438 2.25,-10.438 0,-10.918 -8.92,-18.519 -19.38,-18.519 -11.78,0 -17.68,6.211 -20.52,14.617 l -8.47,26.426 h -78.08 l -8.49,-26.149 c -2.81,-8.683 -8.66,-14.894 -20.14,-14.894 -11.25,0 -20.77,8.41 -20.77,19.633 0,4.593 1.37,7.933 1.87,9.324 l 56.53,152.906" /><path
         id="path22"
         style="fill:#aa9f93;fill-opacity:1;fill-rule:nonzero;stroke:none"
         d="m 4471.3,897.602 c 0,14.062 9.07,21.945 21.07,21.945 12.12,0 21.12,-7.883 21.12,-21.945 V 756.563 h 50.04 c 14.3,0 20.51,-10.719 20.26,-20.215 -0.58,-9.332 -7.96,-18.606 -20.26,-18.606 h -70.32 c -13.73,0 -21.91,8.996 -21.91,23.059 v 156.801" /><path
         id="path24"
         style="fill:#aa9f93;fill-opacity:1;fill-rule:nonzero;stroke:none"
         d="m 4654.55,795.906 h 53.47 l -26.15,81.453 h -0.61 z m -3.07,102.004 c 4.81,12.867 15.72,23.281 30.05,23.281 14.95,0 25.29,-9.832 30.1,-23.281 l 55.07,-152.906 c 1.69,-4.535 2.27,-8.438 2.27,-10.438 0,-10.918 -9.04,-18.519 -19.44,-18.519 -11.75,0 -17.65,6.211 -20.47,14.617 l -8.54,26.426 h -78.03 l -8.45,-26.149 c -2.8,-8.683 -8.76,-14.894 -20.28,-14.894 -11.2,0 -20.72,8.41 -20.72,19.633 0,4.593 1.42,7.933 2,9.324 l 56.44,152.906" /><path
         id="path26"
         style="fill:#aa9f93;fill-opacity:1;fill-rule:nonzero;stroke:none"
         d="m 4787.76,897.602 c 0,14.062 9.06,21.945 21.07,21.945 12.13,0 21.12,-7.883 21.12,-21.945 V 738.02 c 0,-14.118 -8.99,-21.946 -21.12,-21.946 -12.01,0 -21.07,7.828 -21.07,21.946 v 159.582" /><path
         id="path28"
         style="fill:#aa9f93;fill-opacity:1;fill-rule:nonzero;stroke:none"
         d="m 4982.29,892.617 c 0,-10.883 -7.32,-20.742 -18.9,-20.742 -11.52,0 -20.47,8.438 -37.32,8.438 -12.11,0 -23.06,-6.461 -23.06,-18.266 0,-28.938 93.9,-10.414 93.9,-82.902 0,-40.18 -33.2,-65.215 -71.98,-65.215 -21.66,0 -68.22,5.097 -68.22,31.496 0,10.914 7.25,19.933 18.8,19.933 13.14,0 28.9,-10.941 47.15,-10.941 18.58,0 28.65,10.355 28.65,24.172 0,33.137 -93.79,13.195 -93.79,78.387 0,39.316 32.27,63.742 69.76,63.742 15.64,0 55.01,-5.879 55.01,-28.102" /><path
         id="path30"
         style="fill:#aa9f93;fill-opacity:1;fill-rule:nonzero;stroke:none"
         d="m 4112.21,647.488 c -0.88,3.68 -1.14,5.598 -1.14,9.582 0,8.993 7.52,18.543 19.98,18.543 13.53,0 19.99,-7.824 22.44,-20.269 l 23.92,-119.375 h 0.56 l 36.53,123.078 c 3.03,10.133 11.55,16.566 21.96,16.566 10.29,0 18.77,-6.433 21.87,-16.566 l 36.53,-123.078 h 0.62 l 23.86,119.375 c 2.56,12.445 8.99,20.269 22.42,20.269 12.44,0 19.93,-9.55 19.93,-18.543 0,-3.984 -0.22,-5.902 -1.08,-9.582 l -35.59,-153.379 c -2.84,-11.859 -12.14,-21.914 -27.93,-21.914 -13.7,0 -24.37,8.973 -27.79,20.524 l -32.58,108.379 h -0.62 l -32.55,-108.379 c -3.4,-11.551 -14.09,-20.524 -27.82,-20.524 -15.7,0 -25.03,10.055 -27.84,21.914 l -35.68,153.379" /><path
         id="path32"
         style="fill:#aa9f93;fill-opacity:1;fill-rule:nonzero;stroke:none"
         d="m 4415.63,551.977 h 53.46 l -26.17,81.503 h -0.43 z m -3,101.945 c 4.75,13.008 15.67,23.391 30.13,23.391 14.78,0 25.19,-9.801 30.02,-23.391 l 55.1,-152.82 c 1.64,-4.539 2.23,-8.407 2.23,-10.36 0,-10.969 -9,-18.547 -19.43,-18.547 -11.76,0 -17.66,6.129 -20.47,14.598 l -8.5,26.344 h -78.05 l -8.49,-26.125 c -2.84,-8.688 -8.8,-14.817 -20.28,-14.817 -11.19,0 -20.69,8.387 -20.69,19.637 0,4.453 1.45,7.852 1.95,9.27 l 56.48,152.82" /><path
         id="path34"
         style="fill:#aa9f93;fill-opacity:1;fill-rule:nonzero;stroke:none"
         d="m 4548.91,653.699 c 0,14.09 9.01,21.914 21.03,21.914 12.1,0 21.15,-7.824 21.15,-21.914 V 512.66 h 50.04 c 14.31,0 20.52,-10.722 20.15,-20.324 -0.49,-9.223 -7.87,-18.523 -20.15,-18.523 h -70.26 c -13.75,0 -21.96,9.054 -21.96,23.085 v 156.801" /><path
         id="path36"
         style="fill:#aa9f93;fill-opacity:1;fill-rule:nonzero;stroke:none"
         d="m 4674.28,653.699 c 0,14.09 8.98,21.914 21.01,21.914 12.11,0 21.12,-7.824 21.12,-21.914 V 512.66 h 50.03 c 14.22,0 20.52,-10.722 20.18,-20.324 -0.56,-9.223 -7.85,-18.523 -20.18,-18.523 h -70.23 c -13.76,0 -21.93,9.054 -21.93,23.085 v 156.801" /><path
         id="path38"
         style="fill:#aa9f93;fill-opacity:1;fill-rule:nonzero;stroke:none"
         d="m 4799.57,653.699 c 0,14.09 9.02,21.914 21.11,21.914 12.08,0 21.08,-7.824 21.08,-21.914 V 494.086 c 0,-14.031 -9,-21.914 -21.08,-21.914 -12.09,0 -21.11,7.883 -21.11,21.914 v 159.613" /><path
         id="path40"
         style="fill:#aa9f93;fill-opacity:1;fill-rule:nonzero;stroke:none"
         d="m 4985.36,649.16 c 0,-10.941 -7.29,-20.746 -18.88,-20.746 -11.47,0 -20.46,8.41 -37.37,8.41 -12.08,0 -23.03,-6.433 -23.03,-18.265 0,-28.934 93.91,-10.391 93.91,-82.899 0,-40.183 -33.14,-65.215 -71.96,-65.215 -21.66,0 -68.29,5.098 -68.29,31.493 0,10.972 7.3,19.937 18.83,19.937 13.23,0 28.88,-10.973 47.23,-10.973 18.52,0 28.59,10.446 28.59,24.172 0,33.223 -93.77,13.227 -93.77,78.473 0,39.289 32.26,63.738 69.6,63.738 15.8,0 55.14,-5.902 55.14,-28.125" /><path
         id="path42"
         style="fill:#aa9f93;fill-opacity:1;fill-rule:nonzero;stroke:none"
         d="m 3064.62,671.43 c 25.5,-7.782 83.35,-26.325 83.35,-89.844 0,-23.981 -9.54,-50.902 -35.62,-70.695 -33.71,-26.953 -78.83,-28.727 -101.74,-28.727 -34.4,0 -62.95,5.977 -87.09,15 -3.18,1.16 -6.41,2.402 -9.61,3.543 l -3.11,5.438 c 2.55,23.347 2.55,26.355 3.83,50.246 l 6.3,1.847 c 11.45,-8.375 39.46,-28.746 88.39,-28.746 50.31,0 68.67,26.383 68.67,44.938 0,27.535 -27.31,36.476 -66.08,48.515 l -20.33,6.563 c -26.09,7.758 -83.3,25.117 -83.3,86.808 0,61.688 57.21,92.243 128.43,92.243 47.06,0 80.06,-12.528 91.55,-16.727 l 3.17,-4.203 c -2.49,-22.191 -3.17,-24.543 -5.17,-47.301 l -5.65,-2.414 c -15.89,9.602 -40.72,23.934 -82.01,23.934 -8.89,0 -17.85,-0.543 -27.39,-2.953 -19.01,-4.809 -35,-17.375 -35,-36.004 0,-25.688 26.06,-33.528 65.6,-44.848 l 22.81,-6.613" /><path
         id="path44"
         style="fill:#aa9f93;fill-opacity:1;fill-rule:nonzero;stroke:none"
         d="m 3516.16,649.875 c -1.3,41.895 -9.52,83.859 -38.79,115.563 -28.02,29.976 -70.6,43.121 -113.86,43.121 -63.58,0 -100.41,-24.52 -118.3,-41.875 -42.55,-40.098 -43.83,-98.801 -43.83,-121.579 0,-19.8 0.61,-80.847 43.83,-122.175 20.37,-19.848 56.65,-40.2 113.84,-40.2 44.53,0 82.06,10.215 109.96,36.571 21.12,19.762 34.41,43.094 41.36,72.48 4.49,17.942 5.79,37.754 5.79,58.094 m -69.3,-2.402 c 0.65,-12.61 0,-52.754 -14.71,-79.684 -18.44,-32.894 -48.93,-40.109 -72.4,-40.109 -12.81,0 -26.18,2.402 -37.52,7.812 -50.31,23.926 -50.93,84.426 -50.93,108.387 0,25.191 1.9,59.898 19.1,84.441 22.21,33.5 57.89,34.739 69.89,34.739 35.66,0 56.02,-15.543 68.13,-34.114 15.84,-26.39 18.44,-66.527 18.44,-81.472" /><path
         id="path46"
         style="fill:#aa9f93;fill-opacity:1;fill-rule:nonzero;stroke:none"
         d="m 2835.7,644.957 c 0,-20.898 -16.93,-37.824 -37.83,-37.824 -20.97,0 -37.83,16.926 -37.83,37.824 0,20.883 16.86,37.84 37.83,37.84 20.9,0 37.83,-16.957 37.83,-37.84" /><path
         id="path48"
         style="fill:#0979b8;fill-opacity:1;fill-rule:nonzero;stroke:none"
         d="m 1964.49,908.145 c -0.58,-46.032 -1.22,-74.204 -1.22,-116.129 0,-100.653 1.87,-200.645 6.94,-301.325 l -3.13,-3.566 c -54.04,0.652 -66.75,0 -114.44,-1.812 l -3.21,3.636 c 3.21,84.449 3.21,104.18 1.93,185 -25.48,0.625 -50.91,1.246 -76.24,1.246 -24.89,0 -48.4,-0.621 -76.36,-1.832 0.65,-86.781 1.25,-108.402 5.07,-182.672 l -3.18,-3.566 c -55.95,0.652 -67.42,0 -113.81,-1.812 l -3.17,3.636 c 1.22,50.305 2.58,79.629 2.58,133.535 0,148.547 -3.86,222.2 -7.06,283.914 l 3.81,3.582 c 55.32,0 64.87,0 113.81,1.797 l 3.2,-3.632 -1.25,-158.09 c 22.25,0 45.1,-0.602 67.36,-0.602 28.63,0 56.61,0.602 84.58,1.227 -0.61,70.683 -0.61,88.015 -5.09,155.718 l 3.2,3.582 c 53.4,0 61.66,0 112.54,1.797 l 3.14,-3.632" /><path
         id="path50"
         style="fill:#0979b8;fill-opacity:1;fill-rule:nonzero;stroke:none"
         d="m 2333.23,575.781 c -24.19,-12.011 -52.88,-25.761 -99.26,-25.761 -38.13,0 -64.18,11.398 -79.48,33.007 -9.53,12.5 -11.42,24.434 -13.98,36.43 l 205.42,3.648 3.83,4.122 c -0.63,29.406 -1.26,59.359 -10.22,89.289 -22.21,70.707 -71.17,85.011 -92.85,89.875 -15.82,4.144 -30.47,5.382 -45.1,5.382 -99.81,0 -165.97,-61.718 -165.97,-165.332 0,-28.175 5.11,-57.488 15.23,-78.457 36.92,-80.875 123.35,-88.074 169.22,-88.074 52.66,0 75.65,9.067 109.3,21.57 l 3.86,4.844 4.45,67.641 z m -192.72,107.18 c 1.93,18.57 6.37,43.738 30.57,58.129 7.63,4.773 16.55,6.562 25.42,6.562 20.98,0 33.65,-10.125 40.71,-20.953 8.9,-13.164 9.48,-27.519 9.48,-41.34 l -106.18,-2.398" /><path
         id="path52"
         style="fill:#0979b8;fill-opacity:1;fill-rule:nonzero;stroke:none"
         d="m 2601.55,682.961 c 35.01,-12.574 83.92,-29.973 83.92,-95.809 0,-4.152 0,-8.359 -0.67,-13.187 -11.38,-85.645 -106.76,-94.024 -155.13,-94.024 -46.41,0 -73.11,9.571 -104.28,20.375 l -3.13,5.352 c 2.53,29.961 3.13,36.582 4.38,67.73 l 5.75,2.383 c 9.54,-7.172 14.69,-11.445 25.51,-16.82 23.45,-11.328 49.55,-16.711 67.35,-16.711 35.57,0 50.23,16.141 50.23,31.148 0,21.508 -28,30.52 -45.2,35.95 l -24.11,8.379 c -29.88,10.726 -82.66,29.867 -82.66,93.996 0,23.925 8.88,41.929 17.16,52.715 33.06,44.91 95.42,47.363 126.57,47.363 41.3,0 67.36,-7.274 97.23,-15.031 l 3.18,-3.594 -6.33,-65.262 -5.71,-1.867 c -15.9,9.601 -40.7,25.203 -79.49,25.203 -39.53,0 -44.59,-19.762 -44.59,-26.969 0,-16.722 17.25,-23.34 38.87,-30.515 l 31.15,-10.805" /><g
         id="g1345"
         transform="matrix(0.97542601,0,0,0.97542601,172.8603,8.7489064)"><path
           id="path54"
           style="fill:#656263;fill-opacity:1;fill-rule:nonzero;stroke:none"
           d="m 2770.5,226.871 c -8.59,0 -9.24,0 -18.3,-0.488 l -0.96,1.133 c 0.47,18.129 0.96,37.711 0.81,54.382 -3.74,0 -7.77,0.165 -15.22,0.165 -12.63,0 -26.56,-0.165 -37.72,-0.325 -0.15,-30.758 0.33,-41.597 1.14,-53.734 l -0.81,-1.133 c -8.9,0 -9.39,0 -18.29,-0.488 l -0.97,1.133 c 0.65,15.859 0.81,24.117 0.81,73.16 0,21.847 -0.48,29.617 -0.97,39.328 l 0.97,1.141 c 8.25,0.16 10.2,0.16 17.97,0.476 l 0.81,-1.133 c -0.17,-9.547 -0.49,-22.82 -0.49,-44.996 8.41,-0.156 12.95,-0.324 23.47,-0.324 14.89,0 21.68,0.168 29.3,0.484 -0.34,30.758 -0.34,34.313 -1.14,44.352 l 0.8,1.141 c 8.75,0.16 10.04,0.16 17.98,0.476 l 0.81,-1.133 c -0.49,-15.699 -0.66,-25.898 -0.66,-54.218 0,-31.403 0.66,-43.375 1.62,-58.266 l -0.96,-1.133" /><path
           id="path56"
           style="fill:#656263;fill-opacity:1;fill-rule:nonzero;stroke:none"
           d="m 2844.33,272.027 c -16.36,-2.425 -31.57,-4.691 -31.57,-19.101 0,-0.809 0,-14.735 15.37,-14.735 10.04,0 15.86,5.508 17.65,7.129 v 27.028 z m 18.13,-11.824 c 0,-20.062 0.15,-21.844 0.96,-32.367 l -0.81,-0.809 c -7.6,-0.156 -8.9,-0.316 -16.35,-0.644 l -0.65,0.969 0.17,5.832 c -3.08,-2.43 -10.36,-8.258 -22.65,-8.258 -16.2,0 -27.53,11.008 -27.53,27.031 0,21.688 18.13,28.648 47.27,32.043 l 2.74,0.324 c 0,4.367 0,7.449 -1.45,10.035 -1.61,2.914 -5.34,5.989 -13.44,5.989 -10.52,0 -17.8,-3.231 -24.6,-6.149 l -1.3,0.813 c 0.33,7.445 0.33,8.41 0.49,11.808 l 0.98,0.977 c 9.06,3.238 18.45,5.34 28,5.34 11.97,0 23.63,-4.043 27.03,-16.676 1.14,-4.523 1.14,-13.43 1.14,-20.231 v -16.027" /><path
           id="path58"
           style="fill:#656263;fill-opacity:1;fill-rule:nonzero;stroke:none"
           d="m 2962.98,310.547 c -0.32,-12.305 -0.49,-23.789 -0.49,-36.902 0,-19.915 0.49,-31.887 0.81,-38.848 0,-2.262 0.17,-4.531 0.32,-6.793 l -0.64,-0.977 c -7.77,-0.156 -9.06,-0.316 -16.52,-0.644 l -0.96,0.969 0.16,6.796 c -3.56,-2.585 -12.14,-9.222 -25.41,-9.222 -6.3,0 -13.27,1.457 -18.44,5.5 -10.36,8.422 -10.36,22.176 -10.53,34.801 v 10.039 c -0.32,23.148 -0.32,25.734 -0.81,34.468 l 0.81,1.141 c 7.6,0.16 9.06,0.16 16.68,0.805 l 0.96,-1.133 -0.64,-35.445 c 0,-4.372 -0.17,-7.606 0,-15.375 0.15,-6.801 0.48,-21.368 16.83,-21.368 9.55,0 16.35,5.34 20.23,8.418 0.16,8.735 0.16,16.188 0.16,25.571 0,22.5 -0.16,27.031 -1.13,37.55 l 0.97,1.137 c 7.45,0.156 9.23,0.156 16.66,0.645 l 0.98,-1.133" /><path
           id="path60"
           style="fill:#656263;fill-opacity:1;fill-rule:nonzero;stroke:none"
           d="m 3029.37,239.656 c -0.49,-5.343 -0.49,-6.472 -0.66,-11.164 l -0.81,-0.976 c -3.4,-0.805 -6.13,-1.457 -12.14,-1.457 -3.88,0 -14.07,0 -19.09,8.418 -2.92,4.695 -2.92,8.574 -2.92,27.679 l 0.33,35.602 c -5.66,0 -5.83,-0.16 -11.65,-0.32 l -0.65,0.976 c 0.32,5.176 0.32,6.473 0.32,11.649 l 0.98,0.972 c 3.56,0 5.66,-0.16 11,0 -0.16,3.395 -0.16,6.957 -0.16,10.356 -0.17,3.078 -0.33,6.148 -0.49,9.222 l 0.81,1.137 c 7.28,1.781 9.06,2.266 16.51,4.535 l 1.13,-0.812 c -0.47,-10.684 -0.64,-12.785 -0.64,-24.598 6.8,0.16 8.74,0.16 17.96,0.488 l 0.81,-0.976 c -0.32,-4.203 -0.48,-5.989 -0.48,-11.496 l -0.82,-0.965 c -8.08,0.16 -9.06,0.316 -17.64,0.316 l -0.32,-30.097 c 0.17,-1.946 0.17,-11.168 0.17,-13.438 0,-11.812 1.44,-15.535 9.54,-15.535 3.41,0 6,0.805 7.76,1.453 l 1.15,-0.969" /><path
           id="path62"
           style="fill:#656263;fill-opacity:1;fill-rule:nonzero;stroke:none"
           d="m 3101.55,288.863 c -3.24,8.895 -10.35,12.617 -17.63,12.617 -9.07,0 -19.75,-6.144 -21.37,-22.332 19.59,-0.16 25.74,0 40.62,0.165 -0.15,2.265 -0.32,5.824 -1.62,9.55 z m 15.06,-42.246 c -0.81,-6.476 -0.98,-8.097 -1.3,-14.41 l -0.97,-1.129 c -2.75,-1.461 -11.49,-6.152 -25.9,-6.152 -26.54,0 -43.21,15.215 -43.21,43.375 0,30.113 18.14,44.836 39.33,44.836 12.79,0 21.69,-5.34 26.54,-11.168 9.24,-11.008 8.9,-27.031 8.75,-34.153 l -1.14,-0.968 c -25.24,0.16 -29.62,0.16 -56.16,0 0.16,-5.664 0.65,-13.594 6.15,-20.231 6.64,-7.933 15.86,-8.742 20.88,-8.742 4.7,0 9.55,0.809 14.08,2.43 5.99,2.429 9.55,5.34 11.65,7.121 l 1.3,-0.809" /><path
           id="path64"
           style="fill:#656263;fill-opacity:1;fill-rule:nonzero;stroke:none"
           d="m 3268.14,240.141 c -0.48,-5.5 -0.48,-6.641 -0.81,-12.137 l -1.13,-1.133 c -31.55,0 -36.58,-0.16 -67.33,-0.488 l -0.81,1.133 c 0.48,12.789 0.97,21.523 0.97,51.144 0,27.195 0,42.731 -1.13,61.344 l 0.97,1.141 c 31.88,0.16 38.2,0.16 67.99,0.476 l 0.96,-1.133 c -0.49,-4.851 -0.82,-6.797 -1.14,-12.621 l -0.96,-1.133 c -20.89,0.645 -27.84,0.645 -48.4,0.805 -0.48,-14.883 -0.48,-19.586 -0.48,-34.473 19.91,-0.16 26.05,0 45.81,0.329 l 0.81,-1.137 c -0.66,-5.664 -0.66,-7.281 -0.81,-12.461 l -0.98,-1.137 c -18.78,0.488 -22.82,0.488 -44.83,0.488 -0.32,-18.773 -0.17,-23.308 0,-38.683 24.43,0 29.45,0 50.33,0.805 l 0.97,-1.129" /><path
           id="path66"
           style="fill:#656263;fill-opacity:1;fill-rule:nonzero;stroke:none"
           d="m 3352.49,246.133 c -0.65,-6.961 -0.81,-7.774 -1.29,-14.414 l -1.14,-1.129 c -4.7,-2.266 -11.01,-5.5 -22.34,-5.5 -24.43,0 -40.31,17.644 -40.31,42.883 0,25.738 15.54,45.164 40.64,45.164 10.51,0 17.97,-3.403 22.17,-5.184 l 0.66,-1.133 c -0.66,-5.82 -0.82,-7.929 -1.14,-12.781 l -1.3,-0.644 c -5.33,3.878 -11.49,6.312 -17.96,6.312 -13.44,0 -25.26,-10.359 -25.26,-31.078 0,-22.012 12.47,-29.945 25.09,-29.945 11.02,0 17.81,5.668 20.89,8.093 l 1.29,-0.644" /><path
           id="path68"
           style="fill:#656263;fill-opacity:1;fill-rule:nonzero;stroke:none"
           d="m 3425.82,291.609 c -3.08,5.024 -8.25,9.227 -17.31,9.227 -3.08,0 -12.14,-0.324 -17.82,-9.387 -4.36,-6.64 -4.85,-16.023 -4.85,-22.82 0,-6.473 0.17,-22.824 12.95,-29.297 2.91,-1.457 6.32,-2.105 9.55,-2.105 5.99,0 13.75,1.945 18.45,10.843 3.73,7.285 3.88,18.129 3.73,21.532 0,4.043 -0.66,14.886 -4.7,22.007 z m 20.88,-37.062 c -1.79,-7.93 -5.19,-14.242 -10.52,-19.582 -7.13,-7.129 -16.68,-9.875 -28,-9.875 -14.58,0 -23.8,5.5 -28.97,10.844 -11.02,11.168 -11.18,27.679 -11.18,33.015 0,6.153 0.33,22.012 11.18,32.86 4.52,4.691 13.91,11.328 30.1,11.328 11,0 21.84,-3.559 28.97,-11.657 7.44,-8.574 9.55,-19.902 9.87,-31.238 0,-5.496 -0.32,-10.844 -1.45,-15.695" /><path
           id="path70"
           style="fill:#656263;fill-opacity:1;fill-rule:nonzero;stroke:none"
           d="m 3490.58,227.027 c -7.77,-0.156 -9.39,-0.316 -16.99,-0.644 l -0.81,1.133 c 0.33,11.492 0.81,26.058 0.81,57.132 0,22.34 0,46.293 -1.63,67.012 l 0.82,0.969 c 7.93,1.293 9.54,1.617 17.65,3.394 l 0.96,-1.125 c -1.13,-21.207 -1.13,-42.57 -1.13,-63.773 0,-35.441 0.49,-47.75 1.29,-63.121 l -0.97,-0.977" /><path
           id="path72"
           style="fill:#656263;fill-opacity:1;fill-rule:nonzero;stroke:none"
           d="m 3572.17,288.863 c -3.23,8.895 -10.36,12.617 -17.64,12.617 -9.06,0 -19.74,-6.144 -21.38,-22.332 19.59,-0.16 25.75,0 40.64,0.165 -0.16,2.265 -0.32,5.824 -1.62,9.55 z m 15.05,-42.246 c -0.8,-6.476 -0.97,-8.097 -1.29,-14.41 l -0.98,-1.129 c -2.74,-1.461 -11.48,-6.152 -25.9,-6.152 -26.53,0 -43.21,15.215 -43.21,43.375 0,30.113 18.12,44.836 39.33,44.836 12.8,0 21.7,-5.34 26.55,-11.168 9.22,-11.008 8.9,-27.031 8.75,-34.153 l -1.14,-0.968 c -25.25,0.16 -29.62,0.16 -56.18,0 0.17,-5.664 0.66,-13.594 6.16,-20.231 6.64,-7.933 15.86,-8.742 20.89,-8.742 4.68,0 9.55,0.809 14.07,2.43 5.98,2.429 9.55,5.34 11.66,7.121 l 1.29,-0.809" /><path
           id="path74"
           style="fill:#656263;fill-opacity:1;fill-rule:nonzero;stroke:none"
           d="m 3722.4,299.379 c -2.76,0.164 -4.69,0.488 -8.1,0.488 -5.01,0 -15.7,-0.324 -23.46,-7.609 -3.56,-3.395 -9.38,-11.008 -9.38,-25.41 0,-9.231 2.58,-15.868 5.98,-19.91 2.91,-3.399 8.25,-7.282 16.66,-7.282 9.87,0 15.86,5.18 18.14,7.121 0.31,21.196 0.31,26.059 0.16,52.602 z m -0.16,53.25 c 8.25,1.465 9.86,1.781 17.14,3.394 l 1.15,-0.964 c -1.15,-22.5 -1.3,-62.641 -1.3,-78.829 0,-25.085 0.64,-37.058 1.3,-48.226 l -0.81,-1.133 c -7.13,0 -9.07,-0.16 -16.52,-0.488 l -1.14,0.969 0.34,5.988 c -3.88,-2.914 -10.52,-8.098 -22.33,-8.098 -21.54,0 -36.43,17.004 -36.43,41.606 0,17.64 7.45,28.804 14.25,34.793 11.82,10.687 27.19,11.172 35.6,11.172 3.39,0 5.03,0 9.4,-0.329 0.15,20.075 -0.65,29.786 -1.46,39.176 l 0.81,0.969" /><path
           id="path76"
           style="fill:#656263;fill-opacity:1;fill-rule:nonzero;stroke:none"
           d="m 3790.57,349.551 c -6.01,-13.266 -10.85,-27.192 -15.38,-40.949 l -1.14,-1.125 c -5.66,-0.329 -6.32,-0.329 -11.65,-0.657 l -0.81,1.133 c 3.56,13.438 7.12,27.031 8.9,40.633 l 0.97,1.133 c 8.09,0.32 9.71,0.32 18.13,0.965 l 0.98,-1.133" /><path
           id="path78"
           style="fill:#656263;fill-opacity:1;fill-rule:nonzero;stroke:none"
           d="m 3832.81,340.488 c -0.49,-10.84 -0.83,-23.629 -0.83,-51.468 0,-31.075 0.34,-44.352 1.3,-61.016 l -0.96,-1.133 c -7.12,-0.16 -9.4,-0.16 -17.97,-0.488 l -0.98,1.133 c 0.33,9.871 0.65,18.445 0.65,39.332 0,24.437 0,48.718 -1.12,73 l 0.8,1.297 c 7.12,0 9.71,0 17.97,0.476 l 1.14,-1.133" /><path
           id="path80"
           style="fill:#656263;fill-opacity:1;fill-rule:nonzero;stroke:none"
           d="m 3934.46,227.027 c -7.77,-0.156 -8.75,-0.156 -16.19,-0.644 l -1.13,1.133 c 0,1.781 0.15,3.562 0.15,5.339 0.17,7.93 0.17,15.868 0.17,23.793 0,24.93 -0.17,26.543 -0.98,29.946 -3.07,12.297 -12.29,12.297 -14.56,12.297 -9.71,0 -17.15,-5.661 -21.52,-9.063 -0.17,-28.156 0.17,-42.89 1.29,-61.824 l -0.98,-0.977 c -7.92,-0.156 -9.23,-0.156 -16.99,-0.644 l -0.81,1.133 c 0.17,9.062 0.49,17.804 0.49,29.781 0,25.894 -1.13,39.652 -1.94,50.5 l 0.98,1.133 c 8.09,1.457 9.53,1.777 17.15,3.238 l 1.12,-1.133 -0.14,-8.418 c 4.2,2.91 14.22,10.039 28.48,10.039 4.04,0 9.06,-0.652 13.42,-3.078 4.22,-2.43 7.62,-6.156 9.41,-10.523 2.09,-4.856 2.25,-9.707 2.42,-19.742 v -18.938 c 0.49,-18.934 0.65,-26.227 1.12,-32.371 l -0.96,-0.977" /><path
           id="path82"
           style="fill:#656263;fill-opacity:1;fill-rule:nonzero;stroke:none"
           d="m 3993.4,300.512 c -10.53,0 -17.16,-7.77 -17.16,-18.449 0,-7.93 4.04,-17.969 17.16,-17.969 13.27,0 16.66,10.355 16.51,17.969 -0.16,8.738 -4.37,18.449 -16.51,18.449 z m -10.21,-69.598 c -5.66,-5.672 -9.54,-10.363 -9.54,-17.644 0,-5.985 4.85,-16.024 21.36,-16.024 13.27,0 19.59,7.125 19.59,14.731 0,10.679 -9.55,13.113 -19.76,15.859 z m -0.48,15.703 c 4.21,-1.133 24.93,-6.152 29.46,-7.609 4.54,-1.453 19.73,-6.153 19.73,-23.793 0,-13.914 -11.8,-28.813 -37.69,-28.813 -24.12,0 -36.58,11.657 -36.58,25.414 0,11.817 8.09,18.45 14.39,23.465 -3.4,1.457 -4.52,1.946 -7.6,3.403 l -0.32,1.941 c 5.01,7.289 6.96,10.195 11,16.516 -10.84,4.363 -15.54,14.398 -15.54,24.269 0,4.692 0.98,9.715 3.4,14.41 7.77,14.887 23.96,15.7 32.86,15.7 2.59,0 5.83,-0.157 9.06,-0.157 l 4.06,-0.172 c 9.21,-0.156 12.78,-0.156 24.43,0 l 0.81,-0.964 c -0.49,-5.508 -0.49,-5.508 -0.81,-10.684 l -0.98,-0.973 -13.58,0.973 c 5.82,-5.016 7.6,-11.98 7.6,-18.133 0,-15.047 -11.49,-27.996 -31.72,-27.996 -2.76,0 -4.69,0.16 -7.13,0.488 l -4.85,-7.285" /><path
           id="path84"
           style="fill:#656263;fill-opacity:1;fill-rule:nonzero;stroke:none"
           d="m 4108.03,345.664 c -7.94,-10.836 -9.41,-13.105 -16.68,-24.922 l -1.14,-0.644 c -4.36,0.16 -6.15,0.16 -11.81,0.16 l -0.65,1.133 c 1.63,3.886 6.31,14.246 9.88,24.761 l 0.97,0.813 c 3.55,-0.164 6.48,-0.164 9.55,-0.164 3.07,0 6.15,0 9.22,0.164 z m -1.47,-56.801 c -3.23,8.895 -10.36,12.617 -17.63,12.617 -9.07,0 -19.75,-6.144 -21.38,-22.332 19.59,-0.16 25.74,0 40.62,0.165 -0.14,2.265 -0.31,5.824 -1.61,9.55 z m 15.05,-42.246 c -0.8,-6.476 -0.98,-8.097 -1.29,-14.41 l -0.97,-1.129 c -2.75,-1.461 -11.49,-6.152 -25.9,-6.152 -26.54,0 -43.22,15.215 -43.22,43.375 0,30.113 18.13,44.836 39.33,44.836 12.8,0 21.7,-5.34 26.55,-11.168 9.22,-11.008 8.9,-27.031 8.74,-34.153 l -1.13,-0.968 c -25.24,0.16 -29.62,0.16 -56.17,0 0.16,-5.664 0.65,-13.594 6.15,-20.231 6.64,-7.933 15.86,-8.742 20.89,-8.742 4.69,0 9.55,0.809 14.07,2.43 5.99,2.429 9.55,5.34 11.66,7.121 l 1.29,-0.809" /><path
           id="path86"
           style="fill:#656263;fill-opacity:1;fill-rule:nonzero;stroke:none"
           d="m 4220.37,227.027 c -7.77,-0.156 -8.74,-0.156 -16.19,-0.644 l -1.13,1.133 c 0,1.781 0.15,3.562 0.15,5.339 0.17,7.93 0.17,15.868 0.17,23.793 0,24.93 -0.17,26.543 -0.98,29.946 -3.07,12.297 -12.29,12.297 -14.56,12.297 -9.7,0 -17.15,-5.661 -21.52,-9.063 -0.17,-28.156 0.15,-42.89 1.29,-61.824 l -0.97,-0.977 c -7.94,-0.156 -9.22,-0.156 -16.99,-0.644 l -0.82,1.133 c 0.16,9.062 0.49,17.804 0.49,29.781 0,25.894 -1.13,39.652 -1.94,50.5 l 0.96,1.133 c 8.11,1.457 9.55,1.777 17.17,3.238 l 1.13,-1.133 -0.17,-8.418 c 4.22,2.91 14.25,10.039 28.49,10.039 4.04,0 9.07,-0.652 13.43,-3.078 4.22,-2.43 7.62,-6.156 9.4,-10.523 2.1,-4.856 2.26,-9.707 2.43,-19.742 v -18.938 c 0.48,-18.934 0.63,-26.227 1.12,-32.371 l -0.96,-0.977" /><path
           id="path88"
           style="fill:#656263;fill-opacity:1;fill-rule:nonzero;stroke:none"
           d="m 4267.49,334.668 c -8.26,-0.328 -10.04,-0.488 -17.97,-1.293 l -0.97,0.965 c 0.17,2.101 0.17,4.371 0.17,6.476 0,2.914 -0.17,5.5 -0.34,8.735 l 1.14,0.976 c 8.42,0.645 9.87,0.805 17.97,1.614 l 0.97,-0.969 c -0.17,-6.629 -0.17,-8.258 0,-15.375 z m -0.18,-107.641 c -8.4,-0.156 -9.69,-0.156 -17.63,-0.644 l -0.81,1.133 c 0.49,8.578 0.97,16.023 0.97,33.988 0,30.914 -0.48,36.738 -1.61,46.293 l 0.8,1.133 c 6.97,1.133 9.39,1.457 17.48,3.238 l 1.63,-0.977 c -0.48,-8.414 -0.97,-17.152 -0.97,-38.039 0,-30.101 0.32,-34.144 0.97,-45.148 l -0.83,-0.977" /><path
           id="path90"
           style="fill:#656263;fill-opacity:1;fill-rule:nonzero;stroke:none"
           d="m 4348.58,288.863 c -3.24,8.895 -10.35,12.617 -17.63,12.617 -9.07,0 -19.75,-6.144 -21.37,-22.332 19.58,-0.16 25.74,0 40.63,0.165 -0.16,2.265 -0.33,5.824 -1.63,9.55 z m 15.06,-42.246 c -0.81,-6.476 -0.97,-8.097 -1.3,-14.41 l -0.97,-1.129 c -2.75,-1.461 -11.49,-6.152 -25.9,-6.152 -26.53,0 -43.2,15.215 -43.2,43.375 0,30.113 18.13,44.836 39.32,44.836 12.79,0 21.69,-5.34 26.54,-11.168 9.24,-11.008 8.9,-27.031 8.75,-34.153 l -1.14,-0.968 c -25.24,0.16 -29.62,0.16 -56.16,0 0.17,-5.664 0.64,-13.594 6.15,-20.231 6.64,-7.933 15.86,-8.742 20.88,-8.742 4.7,0 9.55,0.809 14.08,2.43 5.99,2.429 9.55,5.34 11.65,7.121 l 1.3,-0.809" /><path
           id="path92"
           style="fill:#656263;fill-opacity:1;fill-rule:nonzero;stroke:none"
           d="m 4428.4,294.199 c -1.62,0.649 -3.72,1.453 -6.48,1.453 -3.06,0 -5.33,-1.125 -6.79,-2.097 -6.63,-4.692 -6.63,-11.817 -6.63,-28.649 0,-18.289 0.47,-27.84 1.13,-36.902 l -0.81,-1.133 c -7.62,0 -9.4,-0.16 -17.17,-0.488 l -0.81,0.969 c 0.18,12.304 0.34,23.468 0.34,38.523 0,25.898 -0.49,32.539 -1.46,41.922 l 0.97,1.133 c 6.14,1.133 10.04,1.945 16.83,3.238 l 0.98,-0.977 -0.82,-13.753 c 1.95,5.179 6,15.535 19.75,15.535 2.1,0 3.23,-0.16 4.53,-0.489 l 0.66,-0.964 c -1.63,-7.77 -1.96,-9.391 -3.09,-16.508 l -1.13,-0.813" /><path
           id="path94"
           style="fill:#656263;fill-opacity:1;fill-rule:nonzero;stroke:none"
           d="m 4469.03,334.668 c -8.25,-0.328 -10.04,-0.488 -17.96,-1.293 l -0.97,0.965 c 0.16,2.101 0.16,4.371 0.16,6.476 0,2.914 -0.16,5.5 -0.33,8.735 l 1.14,0.976 c 8.41,0.645 9.88,0.805 17.96,1.614 l 0.98,-0.969 c -0.17,-6.629 -0.17,-8.258 0,-15.375 z m -0.16,-107.641 c -8.41,-0.156 -9.71,-0.156 -17.64,-0.644 l -0.81,1.133 c 0.49,8.578 0.98,16.023 0.98,33.988 0,30.914 -0.49,36.738 -1.62,46.293 l 0.81,1.133 c 6.96,1.133 9.38,1.457 17.47,3.238 l 1.63,-0.977 c -0.49,-8.414 -0.98,-17.152 -0.98,-38.039 0,-30.101 0.32,-34.144 0.98,-45.148 l -0.82,-0.977" /><path
           id="path96"
           style="fill:#656263;fill-opacity:1;fill-rule:nonzero;stroke:none"
           d="m 4550.14,288.863 c -3.25,8.895 -10.36,12.617 -17.64,12.617 -9.06,0 -19.75,-6.144 -21.38,-22.332 19.59,-0.16 25.75,0 40.63,0.165 -0.15,2.265 -0.31,5.824 -1.61,9.55 z m 15.05,-42.246 c -0.81,-6.476 -0.98,-8.097 -1.29,-14.41 l -0.98,-1.129 c -2.74,-1.461 -11.48,-6.152 -25.9,-6.152 -26.53,0 -43.2,15.215 -43.2,43.375 0,30.113 18.12,44.836 39.31,44.836 12.8,0 21.7,-5.34 26.56,-11.168 9.23,-11.008 8.89,-27.031 8.74,-34.153 l -1.14,-0.968 c -25.24,0.16 -29.61,0.16 -56.17,0 0.17,-5.664 0.66,-13.594 6.16,-20.231 6.64,-7.933 15.85,-8.742 20.88,-8.742 4.69,0 9.55,0.809 14.08,2.43 5.98,2.429 9.55,5.34 11.66,7.121 l 1.29,-0.809" /><path
           id="path98"
           style="fill:#656263;fill-opacity:1;fill-rule:nonzero;stroke:none"
           d="m 1530.4688,40.4609 c -8.5743,0 -9.2305,0 -18.3008,-0.4882 l -0.9571,1.1367 c 0.4883,18.125 0.9571,37.707 0.8125,54.3789 -3.7343,0 -7.7773,0.1601 -15.2265,0.1601 -12.6289,0 -26.5313,-0.1601 -37.7149,-0.3164 -0.1562,-30.7578 0.3321,-41.6015 1.1407,-53.7382 l -0.8086,-1.1329 c -8.9063,0 -9.3946,0 -18.2891,-0.4882 l -0.9805,1.1367 c 0.6563,15.8633 0.8125,24.1094 0.8125,73.1606 0,21.847 -0.4882,29.617 -0.957,39.328 l 0.957,1.129 c 8.25,0.168 10.2032,0.168 17.9688,0.488 l 0.8086,-1.129 c -0.1641,-9.551 -0.4883,-22.824 -0.4883,-45 8.4297,-0.16 12.9531,-0.32 23.4766,-0.32 14.8828,0 21.6836,0.16 29.3007,0.484 -0.3242,30.75 -0.3242,34.309 -1.1445,44.348 l 0.8203,1.129 c 8.7305,0.168 10.0196,0.168 17.961,0.488 l 0.8086,-1.129 c -0.4883,-15.707 -0.6446,-25.898 -0.6446,-54.2227 0,-31.4063 0.6446,-43.3789 1.6211,-58.2695 l -0.9765,-1.1329" /><path
           id="path100"
           style="fill:#656263;fill-opacity:1;fill-rule:nonzero;stroke:none"
           d="m 1614.172,105.199 c -3.078,5.02 -8.254,9.227 -17.317,9.227 -3.078,0 -12.148,-0.321 -17.812,-9.387 -4.375,-6.6327 -4.855,-16.0234 -4.855,-22.8202 0,-6.4766 0.167,-22.8243 12.953,-29.2969 2.918,-1.4571 6.316,-2.1016 9.547,-2.1016 5.988,0 13.75,1.9375 18.449,10.8438 3.73,7.2812 3.879,18.125 3.73,21.5234 0,4.0469 -0.652,14.8945 -4.695,22.0115 z m 20.867,-37.0584 c -1.777,-7.9414 -5.176,-14.2461 -10.508,-19.5898 -7.129,-7.1133 -16.679,-9.875 -28.015,-9.875 -14.563,0 -23.782,5.5078 -28.957,10.8437 -11.016,11.168 -11.164,27.6836 -11.164,33.0235 0,6.1445 0.316,22.012 11.164,32.855 4.519,4.696 13.906,11.329 30.097,11.329 11.004,0 21.848,-3.559 28.977,-11.653 7.449,-8.582 9.551,-19.9138 9.871,-31.2342 0,-5.5117 -0.32,-10.8515 -1.465,-15.6992" /><path
           id="path102"
           style="fill:#656263;fill-opacity:1;fill-rule:nonzero;stroke:none"
           d="m 1722.313,59.7227 c -0.653,-6.9649 -0.809,-7.7696 -1.297,-14.4063 l -1.145,-1.1328 c -4.683,-2.2695 -10.992,-5.5078 -22.332,-5.5078 -24.434,0 -40.293,17.6406 -40.293,42.8945 0,25.7347 15.547,45.1567 40.613,45.1567 10.532,0 17.981,-3.399 22.18,-5.18 l 0.645,-1.125 c -0.645,-5.836 -0.813,-7.938 -1.121,-12.789 l -1.301,-0.653 c -5.352,3.887 -11.485,6.313 -17.957,6.313 -13.442,0 -25.266,-10.363 -25.266,-31.0742 0,-22.0196 12.473,-29.9454 25.098,-29.9454 11.008,0 17.801,5.6641 20.879,8.0977 l 1.297,-0.6484" /><path
           id="path104"
           style="fill:#656263;fill-opacity:1;fill-rule:nonzero;stroke:none"
           d="m 1813.77,40.6211 c -7.762,-0.1602 -8.743,-0.1602 -16.192,-0.6484 l -1.125,1.1367 0.149,5.3359 c 0.175,8.418 0.175,17 0.175,25.4102 l -0.175,17.3203 c 0,3.7226 0,7.4492 -0.801,11.0042 -1.785,7.453 -6.309,12.304 -14.571,12.304 -9.226,0 -16.335,-5.179 -21.691,-9.066 -0.152,-28.1602 0.168,-42.8907 1.145,-61.8242 l -0.821,-0.9727 c -7.429,-0.1602 -9.383,-0.1602 -17.304,-0.6484 l -0.821,1.1367 c 0.332,11.4922 0.821,26.0547 0.821,57.1328 0,13.5938 -0.164,27.1878 -0.332,40.7848 -0.325,14.243 -0.813,18.942 -1.297,26.227 l 0.808,0.969 c 7.766,1.293 10.352,1.781 17.649,3.402 l 0.965,-1.141 c -0.965,-17.316 -0.965,-34.796 -0.965,-52.277 5.183,3.398 15.371,10.031 28.965,10.031 3.726,0 7.449,-0.48 10.847,-1.937 7.278,-2.914 11.653,-8.738 13.281,-15.375 0.801,-3.238 0.801,-5.18 1.125,-16.0276 V 73.9648 l 0.165,-7.6093 c 0.324,-13.5977 0.324,-15.8555 0.964,-24.7617 l -0.964,-0.9727" /><path
           id="path106"
           style="fill:#656263;fill-opacity:1;fill-rule:nonzero;stroke:none"
           d="m 1877.078,89.6641 c 6.477,-2.1055 21.203,-7.1211 21.203,-24.2813 0,-6.4765 -2.429,-13.7578 -9.07,-19.0976 -8.574,-7.2813 -20.07,-7.7696 -25.898,-7.7696 -8.735,0 -16.016,1.6211 -22.168,4.0469 -0.801,0.3281 -1.614,0.6445 -2.422,0.9727 l -0.825,1.4531 c 0.657,6.3164 0.657,7.125 0.981,13.6015 l 1.609,0.4805 c 2.93,-2.2617 10.039,-7.7656 22.5,-7.7656 12.805,0 17.492,7.125 17.492,12.1406 0,7.4453 -6.964,9.8711 -16.835,13.1094 l -5.176,1.7734 c -6.645,2.1094 -21.203,6.8047 -21.203,23.4809 0,16.664 14.558,24.918 32.683,24.918 11.977,0 20.403,-3.399 23.313,-4.536 l 0.801,-1.132 c -0.633,-5.985 -0.801,-6.633 -1.29,-12.782 l -1.445,-0.644 c -4.055,2.586 -10.359,6.472 -20.89,6.472 -2.262,0 -4.54,-0.16 -6.961,-0.812 -4.856,-1.297 -8.899,-4.695 -8.899,-9.703 0,-6.965 6.633,-9.0705 16.672,-12.1447 l 5.828,-1.7812" /><path
           id="path108"
           style="fill:#656263;fill-opacity:1;fill-rule:nonzero;stroke:none"
           d="m 1981.008,59.7227 c -0.656,-6.9649 -0.813,-7.7696 -1.301,-14.4063 l -1.144,-1.1328 c -4.684,-2.2695 -10.997,-5.5078 -22.333,-5.5078 -24.433,0 -40.292,17.6406 -40.292,42.8945 0,25.7347 15.539,45.1567 40.617,45.1567 10.523,0 17.976,-3.399 22.175,-5.18 l 0.645,-1.125 c -0.645,-5.836 -0.812,-7.938 -1.133,-12.789 l -1.289,-0.653 c -5.351,3.887 -11.484,6.313 -17.961,6.313 -13.433,0 -25.262,-10.363 -25.262,-31.0742 0,-22.0196 12.461,-29.9454 25.098,-29.9454 11.008,0 17.805,5.6641 20.879,8.0977 l 1.301,-0.6484" /><path
           id="path110"
           style="fill:#656263;fill-opacity:1;fill-rule:nonzero;stroke:none"
           d="m 2072.48,40.6211 c -7.773,-0.1602 -8.75,-0.1602 -16.191,-0.6484 l -1.133,1.1367 0.157,5.3359 c 0.167,8.418 0.167,17 0.167,25.4102 l -0.167,17.3203 c 0,3.7226 0,7.4492 -0.809,11.0042 -1.777,7.453 -6.313,12.304 -14.563,12.304 -9.238,0 -16.347,-5.179 -21.699,-9.066 -0.144,-28.1602 0.176,-42.8907 1.145,-61.8242 l -0.801,-0.9727 c -7.453,-0.1602 -9.406,-0.1602 -17.324,-0.6484 l -0.813,1.1367 c 0.321,11.4922 0.813,26.0547 0.813,57.1328 0,13.5938 -0.168,27.1878 -0.332,40.7848 -0.325,14.243 -0.813,18.942 -1.301,26.227 l 0.82,0.969 c 7.774,1.293 10.364,1.781 17.649,3.402 l 0.957,-1.141 c -0.957,-17.316 -0.957,-34.796 -0.957,-52.277 5.172,3.398 15.371,10.031 28.972,10.031 3.711,0 7.434,-0.48 10.828,-1.937 7.297,-2.914 11.653,-8.738 13.286,-15.375 0.808,-3.238 0.808,-5.18 1.129,-16.0276 V 73.9648 l 0.167,-7.6093 c 0.313,-13.5977 0.313,-15.8555 0.958,-24.7617 l -0.958,-0.9727" /><path
           id="path112"
           style="fill:#656263;fill-opacity:1;fill-rule:nonzero;stroke:none"
           d="m 2173.164,124.137 c -0.312,-12.301 -0.476,-23.793 -0.476,-36.9026 0,-19.9063 0.476,-31.8828 0.796,-38.8438 0,-2.2617 0.168,-4.5351 0.332,-6.7968 l -0.652,-0.9727 c -7.766,-0.1602 -9.062,-0.3242 -16.504,-0.6484 l -0.969,0.9726 0.161,6.793 c -3.567,-2.586 -12.141,-9.2227 -25.414,-9.2227 -6.305,0 -13.27,1.4571 -18.446,5.5078 -10.359,8.4102 -10.359,22.1719 -10.527,34.793 v 10.0391 c -0.32,23.1405 -0.32,25.7305 -0.813,34.4725 l 0.813,1.137 c 7.617,0.16 9.062,0.16 16.672,0.808 l 0.965,-1.136 -0.633,-35.4495 c 0,-4.3633 -0.168,-7.5977 0,-15.3711 0.144,-6.7969 0.484,-21.3633 16.824,-21.3633 9.562,0 16.348,5.336 20.234,8.418 0.164,8.7344 0.164,16.1836 0.164,25.5664 0,22.5005 -0.164,27.0315 -1.14,37.5545 l 0.976,1.133 c 7.453,0.16 9.219,0.16 16.668,0.648 l 0.969,-1.136" /><path
           id="path114"
           style="fill:#656263;fill-opacity:1;fill-rule:nonzero;stroke:none"
           d="m 2219.961,40.6211 c -7.766,-0.1602 -9.387,-0.3242 -16.981,-0.6484 l -0.812,1.1367 c 0.32,11.4922 0.812,26.0547 0.812,57.1328 0,22.3398 0,46.2928 -1.632,67.0118 l 0.82,0.969 c 7.922,1.293 9.543,1.621 17.645,3.402 l 0.957,-1.141 c -1.129,-21.199 -1.129,-42.566 -1.129,-63.773 0,-35.4415 0.488,-47.7383 1.297,-63.1172 l -0.977,-0.9727" /><path
           id="path116"
           style="fill:#656263;fill-opacity:1;fill-rule:nonzero;stroke:none"
           d="m 2301.555,102.449 c -3.235,8.906 -10.364,12.625 -17.637,12.625 -9.074,0 -19.746,-6.148 -21.379,-22.3357 19.59,-0.1641 25.742,0 40.625,0.1601 -0.144,2.2618 -0.312,5.8282 -1.609,9.5506 z m 15.047,-42.2498 c -0.801,-6.4687 -0.977,-8.0859 -1.289,-14.3984 l -0.977,-1.1367 c -2.742,-1.4571 -11.484,-6.1485 -25.898,-6.1485 -26.536,0 -43.211,15.2149 -43.211,43.3789 0,30.1015 18.125,44.8325 39.324,44.8325 12.793,0 21.687,-5.34 26.554,-11.164 9.215,-11.008 8.895,-27.0317 8.739,-34.1567 l -1.145,-0.9688 c -25.23,0.1641 -29.605,0.1641 -56.16,0 0.164,-5.668 0.652,-13.5898 6.152,-20.2383 6.641,-7.9258 15.86,-8.7344 20.887,-8.7344 4.692,0 9.555,0.8086 14.074,2.4297 5.989,2.4219 9.551,5.3399 11.661,7.1211 l 1.289,-0.8164" /><path
           id="path118"
           style="fill:#656263;fill-opacity:1;fill-rule:nonzero;stroke:none"
           d="m 2416.648,40.4609 c -7.437,0 -8.894,0 -17.468,-0.4882 l -0.813,1.1367 c 0.813,16.9922 0.813,34.4726 0.813,51.6289 0,8.5777 0,11.4887 -0.164,18.6167 -4.055,-0.167 -8.086,-0.167 -11.328,-0.167 l -0.977,0.976 c 0.332,4.531 0.484,6.149 0.652,11.652 l 0.977,0.969 c 4.851,-0.16 8.086,-0.32 10.351,-0.32 l -0.168,10.676 c 0,8.097 0,10.039 0.493,12.949 3.718,18.773 23.797,18.773 28.32,18.773 2.43,0 4.051,-0.152 6.148,-0.316 l 0.813,-1.137 c -0.645,-4.531 -0.813,-6.633 -1.133,-11.648 l -1.121,-0.813 c -1.469,0.321 -2.59,0.649 -4.375,0.649 -3.398,0 -7.133,-0.649 -9.719,-4.86 -2.59,-4.047 -2.59,-8.578 -2.422,-19.422 v -4.851 c 0.325,0 14.395,0.32 16.028,0.32 l 0.808,-0.969 c -0.32,-5.179 -0.488,-6.472 -0.652,-11.492 l -0.981,-0.969 c -6.953,0.161 -8.406,0.161 -14.878,0.161 0,-21.5316 0.164,-43.2152 1.289,-64.7426 0,-1.6211 0.164,-3.4062 0.32,-5.1796 l -0.813,-1.1329" /><path
           id="path120"
           style="fill:#656263;fill-opacity:1;fill-rule:nonzero;stroke:none"
           d="m 2513.45,156.676 c -0.16,-5.836 -0.16,-8.258 0.16,-16.028 l -1.12,-1.293 c -7.45,0 -9.4,0 -17.32,-0.167 l -0.98,1.296 c 0.17,7.446 0.17,9.715 0,16.024 l 1.3,1.133 c 6.96,-0.161 8.89,-0.161 16.83,0.164 z m -33.18,-0.168 c -0.15,-7.77 -0.15,-10.192 0,-16.024 l -0.97,-1.296 c -8.59,0.167 -9.88,0 -17.16,-0.321 l -0.98,1.293 c 0.34,6.637 0.34,8.746 0,15.86 l 1.31,1.46 c 8.1,-0.167 9.39,0 16.67,0.325 z m 42.41,-32.371 c -0.33,-12.301 -0.49,-23.793 -0.49,-36.9026 0,-19.9063 0.49,-31.8828 0.81,-38.8438 0,-2.2617 0.16,-4.5351 0.32,-6.7968 l -0.64,-0.9727 c -7.77,-0.1602 -9.07,-0.3242 -16.52,-0.6484 l -0.96,0.9726 0.16,6.793 c -3.56,-2.586 -12.15,-9.2227 -25.41,-9.2227 -6.31,0 -13.27,1.4571 -18.45,5.5078 -10.36,8.4102 -10.36,22.1719 -10.52,34.793 v 10.0391 c -0.33,23.1405 -0.33,25.7305 -0.81,34.4725 l 0.81,1.137 c 7.59,0.16 9.06,0.16 16.68,0.808 l 0.95,-1.136 -0.63,-35.4495 c 0,-4.3633 -0.17,-7.5977 0,-15.3711 0.15,-6.7969 0.49,-21.3633 16.82,-21.3633 9.56,0 16.35,5.336 20.24,8.418 0.16,8.7344 0.16,16.1836 0.16,25.5664 0,22.5005 -0.16,27.0315 -1.14,37.5545 l 0.98,1.133 c 7.45,0.16 9.23,0.16 16.66,0.648 l 0.98,-1.136" /><path
           id="path122"
           style="fill:#656263;fill-opacity:1;fill-rule:nonzero;stroke:none"
           d="m 2589.71,107.793 c -1.62,0.645 -3.72,1.457 -6.48,1.457 -3.07,0 -5.33,-1.141 -6.79,-2.105 -6.65,-4.696 -6.65,-11.813 -6.65,-28.6489 0,-18.2969 0.49,-27.8359 1.15,-36.9023 l -0.81,-1.1329 c -7.62,0 -9.39,-0.164 -17.15,-0.4882 l -0.82,0.9726 c 0.16,12.3008 0.33,23.4688 0.33,38.5195 0,25.8942 -0.49,32.5312 -1.46,41.9222 l 0.97,1.133 c 6.15,1.128 10.02,1.945 16.84,3.238 l 0.95,-0.973 -0.81,-13.754 c 1.96,5.176 5.99,15.535 19.76,15.535 2.11,0 3.23,-0.16 4.53,-0.488 l 0.66,-0.965 c -1.64,-7.769 -1.96,-9.39 -3.08,-16.515 l -1.14,-0.805" /><path
           id="path124"
           style="fill:#656263;fill-opacity:1;fill-rule:nonzero;stroke:none"
           d="m 2686.52,154.086 c -0.48,-10.848 -0.82,-23.637 -0.82,-51.473 0,-31.0817 0.34,-44.3474 1.3,-61.0192 l -0.96,-1.1329 c -7.13,-0.164 -9.4,-0.164 -17.97,-0.4882 l -0.98,1.1367 c 0.33,9.8672 0.65,18.4531 0.65,39.3281 0,24.4455 0,48.7185 -1.13,72.9965 l 0.81,1.293 c 7.12,0 9.71,0 17.96,0.488 l 1.14,-1.129" /><path
           id="path126"
           style="fill:#656263;fill-opacity:1;fill-rule:nonzero;stroke:none"
           d="m 2788.17,40.6211 c -7.76,-0.1602 -8.74,-0.1602 -16.19,-0.6484 l -1.12,1.1367 c 0,1.7812 0.15,3.5547 0.15,5.3359 0.17,7.9414 0.17,15.8633 0.17,23.793 0,24.9219 -0.17,26.5469 -0.97,29.9417 -3.08,12.304 -12.3,12.304 -14.58,12.304 -9.71,0 -17.14,-5.668 -21.52,-9.066 -0.16,-28.1602 0.17,-42.8907 1.3,-61.8242 l -0.98,-0.9727 c -7.92,-0.1602 -9.22,-0.1602 -17,-0.6484 l -0.8,1.1367 c 0.17,9.0625 0.48,17.7969 0.48,29.7812 0,25.8946 -1.12,39.6524 -1.93,50.4964 l 0.97,1.133 c 8.09,1.457 9.54,1.781 17.16,3.238 l 1.12,-1.133 -0.15,-8.418 c 4.21,2.918 14.23,10.031 28.48,10.031 4.05,0 9.06,-0.636 13.43,-3.07 4.22,-2.43 7.62,-6.152 9.4,-10.516 2.1,-4.859 2.25,-9.722 2.42,-19.7536 V 73.9648 c 0.49,-18.9414 0.65,-26.2265 1.13,-32.371 l -0.97,-0.9727" /><path
           id="path128"
           style="fill:#656263;fill-opacity:1;fill-rule:nonzero;stroke:none"
           d="m 2847.13,114.105 c -10.53,0 -17.17,-7.765 -17.17,-18.4566 0,-7.9296 4.05,-17.957 17.17,-17.957 13.27,0 16.66,10.3555 16.49,17.957 -0.14,8.7466 -4.35,18.4566 -16.49,18.4566 z m -10.21,-69.6011 c -5.65,-5.6601 -9.55,-10.3594 -9.55,-17.6406 0,-5.9844 4.86,-16.0235 21.37,-16.0235 13.27,0 19.59,7.1211 19.59,14.7266 0,10.6875 -9.55,13.1094 -19.76,15.8711 z m -0.47,15.6953 c 4.2,-1.1289 24.92,-6.1406 29.45,-7.5976 4.53,-1.4649 19.75,-6.1563 19.75,-23.7969 C 2885.65,14.8828 2873.83,0 2847.94,0 c -24.12,0 -36.58,11.6484 -36.58,25.4102 0,11.8125 8.08,18.4453 14.39,23.4687 -3.4,1.4531 -4.52,1.9414 -7.6,3.3945 l -0.32,1.9414 c 5.01,7.2852 6.96,10.1993 11,16.5118 -10.84,4.3711 -15.54,14.4062 -15.54,24.2773 0,4.6992 0.98,9.7071 3.4,14.3981 7.77,14.899 23.96,15.711 32.86,15.711 2.59,0 5.83,-0.168 9.06,-0.168 l 4.06,-0.16 c 9.21,-0.16 12.78,-0.16 24.43,0 l 0.81,-0.969 c -0.49,-5.503 -0.49,-5.503 -0.81,-10.687 l -0.98,-0.965 -13.58,0.965 c 5.82,-5.02 7.6,-11.973 7.6,-18.1251 0,-15.0547 -11.49,-28 -31.72,-28 -2.76,0 -4.69,0.1602 -7.13,0.4844 l -4.84,-7.2891" /><path
           id="path130"
           style="fill:#656263;fill-opacity:1;fill-rule:nonzero;stroke:none"
           d="m 2960.28,102.449 c -3.23,8.906 -10.36,12.625 -17.64,12.625 -9.07,0 -19.74,-6.148 -21.37,-22.3357 19.59,-0.1641 25.74,0 40.62,0.1601 -0.15,2.2618 -0.32,5.8282 -1.61,9.5506 z m 15.05,-42.2498 c -0.81,-6.4687 -0.97,-8.0859 -1.3,-14.3984 l -0.97,-1.1367 c -2.74,-1.4571 -11.49,-6.1485 -25.89,-6.1485 -26.54,0 -43.22,15.2149 -43.22,43.3789 0,30.1015 18.12,44.8325 39.33,44.8325 12.79,0 21.69,-5.34 26.55,-11.164 9.21,-11.008 8.9,-27.0317 8.74,-34.1567 l -1.14,-0.9688 c -25.24,0.1641 -29.61,0.1641 -56.16,0 0.17,-5.668 0.65,-13.5898 6.15,-20.2383 6.64,-7.9258 15.86,-8.7344 20.89,-8.7344 4.69,0 9.55,0.8086 14.07,2.4297 5.99,2.4219 9.55,5.3399 11.65,7.1211 l 1.3,-0.8164" /><path
           id="path132"
           style="fill:#656263;fill-opacity:1;fill-rule:nonzero;stroke:none"
           d="m 3074.08,40.6211 c -7.76,-0.1602 -8.74,-0.1602 -16.19,-0.6484 l -1.12,1.1367 c 0,1.7812 0.15,3.5547 0.15,5.3359 0.17,7.9414 0.17,15.8633 0.17,23.793 0,24.9219 -0.17,26.5469 -0.98,29.9417 -3.07,12.304 -12.29,12.304 -14.56,12.304 -9.7,0 -17.16,-5.668 -21.53,-9.066 -0.17,-28.1602 0.16,-42.8907 1.3,-61.8242 l -0.98,-0.9727 c -7.93,-0.1602 -9.22,-0.1602 -16.98,-0.6484 l -0.82,1.1367 c 0.17,9.0625 0.49,17.7969 0.49,29.7812 0,25.8946 -1.14,39.6524 -1.95,50.4964 l 0.97,1.133 c 8.11,1.457 9.55,1.781 17.17,3.238 l 1.12,-1.133 -0.16,-8.418 c 4.21,2.918 14.25,10.031 28.48,10.031 4.05,0 9.08,-0.636 13.44,-3.07 4.22,-2.43 7.62,-6.152 9.39,-10.516 2.11,-4.859 2.26,-9.722 2.43,-19.7536 V 73.9648 c 0.48,-18.9414 0.64,-26.2265 1.13,-32.371 l -0.97,-0.9727" /><path
           id="path134"
           style="fill:#656263;fill-opacity:1;fill-rule:nonzero;stroke:none"
           d="m 3121.2,148.254 c -8.25,-0.324 -10.04,-0.481 -17.96,-1.297 l -0.97,0.973 c 0.16,2.105 0.16,4.375 0.16,6.472 0,2.911 -0.16,5.504 -0.33,8.746 l 1.14,0.969 c 8.41,0.649 9.88,0.809 17.96,1.621 l 0.98,-0.972 c -0.17,-6.637 -0.17,-8.258 0,-15.379 z m -0.16,-107.6329 c -8.41,-0.1602 -9.71,-0.1602 -17.64,-0.6484 l -0.81,1.1367 c 0.49,8.5742 0.97,16.0234 0.97,33.9883 0,30.9143 -0.48,36.7383 -1.62,46.2893 l 0.81,1.133 c 6.97,1.128 9.39,1.457 17.47,3.238 l 1.64,-0.973 c -0.49,-8.418 -0.98,-17.152 -0.98,-38.0311 0,-30.1094 0.32,-34.1523 0.98,-45.1601 l -0.82,-0.9727" /><path
           id="path136"
           style="fill:#656263;fill-opacity:1;fill-rule:nonzero;stroke:none"
           d="m 3202.3,102.449 c -3.24,8.906 -10.36,12.625 -17.63,12.625 -9.07,0 -19.75,-6.148 -21.38,-22.3357 19.59,-0.1641 25.74,0 40.63,0.1601 -0.15,2.2618 -0.33,5.8282 -1.62,9.5506 z m 15.05,-42.2498 c -0.81,-6.4687 -0.97,-8.0859 -1.29,-14.3984 l -0.97,-1.1367 c -2.75,-1.4571 -11.5,-6.1485 -25.9,-6.1485 -26.54,0 -43.2,15.2149 -43.2,43.3789 0,30.1015 18.12,44.8325 39.31,44.8325 12.8,0 21.69,-5.34 26.56,-11.164 9.22,-11.008 8.89,-27.0317 8.74,-34.1567 l -1.15,-0.9688 c -25.23,0.1641 -29.61,0.1641 -56.16,0 0.17,-5.668 0.66,-13.5898 6.15,-20.2383 6.64,-7.9258 15.86,-8.7344 20.89,-8.7344 4.69,0 9.55,0.8086 14.07,2.4297 5.99,2.4219 9.56,5.3399 11.66,7.1211 l 1.29,-0.8164" /><path
           id="path138"
           style="fill:#656263;fill-opacity:1;fill-rule:nonzero;stroke:none"
           d="m 3315.95,124.137 c -0.32,-12.301 -0.49,-23.793 -0.49,-36.9026 0,-19.9063 0.49,-31.8828 0.8,-38.8438 0,-2.2617 0.18,-4.5351 0.34,-6.7968 l -0.65,-0.9727 c -7.78,-0.1602 -9.07,-0.3242 -16.52,-0.6484 l -0.96,0.9726 0.15,6.793 c -3.56,-2.586 -12.14,-9.2227 -25.41,-9.2227 -6.31,0 -13.27,1.4571 -18.44,5.5078 -10.37,8.4102 -10.37,22.1719 -10.53,34.793 v 10.0391 c -0.32,23.1405 -0.32,25.7305 -0.81,34.4725 l 0.81,1.137 c 7.62,0.16 9.06,0.16 16.67,0.808 l 0.97,-1.136 -0.64,-35.4495 c 0,-4.3633 -0.17,-7.5977 0,-15.3711 0.16,-6.7969 0.49,-21.3633 16.84,-21.3633 9.55,0 16.33,5.336 20.22,8.418 0.17,8.7344 0.17,16.1836 0.17,25.5664 0,22.5005 -0.17,27.0315 -1.15,37.5545 l 0.98,1.133 c 7.45,0.16 9.22,0.16 16.67,0.648 l 0.98,-1.136" /><path
           id="path140"
           style="fill:#656263;fill-opacity:1;fill-rule:nonzero;stroke:none"
           d="m 3382.97,107.793 c -1.61,0.645 -3.72,1.457 -6.48,1.457 -3.06,0 -5.33,-1.141 -6.79,-2.105 -6.62,-4.696 -6.62,-11.813 -6.62,-28.6489 0,-18.2969 0.46,-27.8359 1.12,-36.9023 l -0.81,-1.1329 c -7.61,0 -9.4,-0.164 -17.16,-0.4882 l -0.81,0.9726 c 0.17,12.3008 0.33,23.4688 0.33,38.5195 0,25.8942 -0.49,32.5312 -1.46,41.9222 l 0.97,1.133 c 6.15,1.128 10.04,1.945 16.84,3.238 l 0.98,-0.973 -0.82,-13.754 c 1.94,5.176 5.99,15.535 19.75,15.535 2.1,0 3.22,-0.16 4.52,-0.488 l 0.66,-0.965 c -1.63,-7.769 -1.96,-9.39 -3.08,-16.515 l -1.14,-0.805" /><path
           id="path142"
           style="fill:#656263;fill-opacity:1;fill-rule:nonzero;stroke:none"
           d="m 3498.22,40.6211 c -10.85,-0.1602 -12.14,-0.1602 -22.01,-0.6484 l -1.12,1.1367 c -1.96,9.8672 -5.03,22.9765 -7.78,34.4726 l -9.38,38.844 -9.55,-39.8127 c -4.86,-19.5899 -6.48,-25.8985 -7.94,-33.0195 l -0.97,-0.9727 c -11.32,-0.1602 -12.13,-0.1602 -22.33,-0.6484 l -0.98,1.1367 c -7.12,28.9726 -19.26,71.3746 -22.65,82.0586 l 0.64,1.133 c 7.76,0.484 9.88,0.484 17.66,1.301 l 0.95,-0.977 c 0.98,-5.34 2.1,-10.355 9.07,-40.3008 l 7.77,-33.3476 10.53,43.5429 c 4.85,21.5315 5.17,23.6285 6.15,28.8085 l 1.12,1.137 c 9.55,0 12.3,0 22.99,0.48 l 0.98,-1.129 c 2.25,-11.164 6.14,-26.7027 9.05,-39.0113 L 3489,50.5 l 9.07,37.707 c 1.3,5.6602 2.59,11.3282 3.88,16.992 2.75,11.008 3.08,12.305 4.05,18.449 l 1.14,0.977 c 2.59,0 5.33,-0.16 7.92,-0.16 2.43,0 4.85,0.16 7.27,0.16 l 0.98,-0.977 c -3.08,-9.222 -17.31,-54.3785 -23.94,-82.0542 l -1.15,-0.9727" /><path
           id="path144"
           style="fill:#656263;fill-opacity:1;fill-rule:nonzero;stroke:none"
           d="m 3558.3,148.254 c -8.25,-0.324 -10.04,-0.481 -17.96,-1.297 l -0.97,0.973 c 0.16,2.105 0.16,4.375 0.16,6.472 0,2.911 -0.16,5.504 -0.33,8.746 l 1.14,0.969 c 8.41,0.649 9.87,0.809 17.96,1.621 l 0.98,-0.972 c -0.17,-6.637 -0.17,-8.258 0,-15.379 z m -0.17,-107.6329 c -8.4,-0.1602 -9.7,-0.1602 -17.63,-0.6484 l -0.81,1.1367 c 0.49,8.5742 0.97,16.0234 0.97,33.9883 0,30.9143 -0.48,36.7383 -1.62,46.2893 l 0.81,1.133 c 6.97,1.128 9.39,1.457 17.47,3.238 l 1.64,-0.973 c -0.49,-8.418 -0.98,-17.152 -0.98,-38.0311 0,-30.1094 0.32,-34.1523 0.98,-45.1601 l -0.83,-0.9727" /><path
           id="path146"
           style="fill:#656263;fill-opacity:1;fill-rule:nonzero;stroke:none"
           d="m 3621.45,89.6641 c 6.47,-2.1055 21.2,-7.1211 21.2,-24.2813 0,-6.4765 -2.44,-13.7578 -9.08,-19.0976 -8.58,-7.2813 -20.06,-7.7696 -25.89,-7.7696 -8.73,0 -16.02,1.6211 -22.17,4.0469 -0.81,0.3281 -1.61,0.6445 -2.42,0.9727 l -0.82,1.4531 c 0.65,6.3164 0.65,7.125 0.97,13.6015 l 1.61,0.4805 c 2.92,-2.2617 10.04,-7.7656 22.5,-7.7656 12.8,0 17.49,7.125 17.49,12.1406 0,7.4453 -6.96,9.8711 -16.83,13.1094 l -5.18,1.7734 c -6.65,2.1094 -21.21,6.8047 -21.21,23.4809 0,16.664 14.56,24.918 32.7,24.918 11.97,0 20.39,-3.399 23.3,-4.536 l 0.81,-1.132 c -0.64,-5.985 -0.81,-6.633 -1.29,-12.782 l -1.46,-0.644 c -4.05,2.586 -10.35,6.472 -20.88,6.472 -2.27,0 -4.54,-0.16 -6.96,-0.812 -4.86,-1.297 -8.89,-4.695 -8.89,-9.703 0,-6.965 6.62,-9.0705 16.66,-12.1447 l 5.84,-1.7812" /><path
           id="path148"
           style="fill:#656263;fill-opacity:1;fill-rule:nonzero;stroke:none"
           d="m 3698.66,89.6641 c 6.48,-2.1055 21.2,-7.1211 21.2,-24.2813 0,-6.4765 -2.43,-13.7578 -9.07,-19.0976 -8.58,-7.2813 -20.07,-7.7696 -25.9,-7.7696 -8.73,0 -16.01,1.6211 -22.17,4.0469 -0.81,0.3281 -1.61,0.6445 -2.42,0.9727 l -0.82,1.4531 c 0.66,6.3164 0.66,7.125 0.98,13.6015 l 1.61,0.4805 c 2.92,-2.2617 10.04,-7.7656 22.5,-7.7656 12.79,0 17.49,7.125 17.49,12.1406 0,7.4453 -6.96,9.8711 -16.84,13.1094 l -5.17,1.7734 c -6.64,2.1094 -21.21,6.8047 -21.21,23.4809 0,16.664 14.57,24.918 32.69,24.918 11.98,0 20.39,-3.399 23.3,-4.536 l 0.81,-1.132 c -0.63,-5.985 -0.81,-6.633 -1.28,-12.782 l -1.46,-0.644 c -4.05,2.586 -10.35,6.472 -20.88,6.472 -2.27,0 -4.54,-0.16 -6.96,-0.812 -4.86,-1.297 -8.9,-4.695 -8.9,-9.703 0,-6.965 6.62,-9.0705 16.66,-12.1447 l 5.84,-1.7812" /><path
           id="path150"
           style="fill:#656263;fill-opacity:1;fill-rule:nonzero;stroke:none"
           d="m 3793.85,102.449 c -3.22,8.906 -10.35,12.625 -17.64,12.625 -9.06,0 -19.75,-6.148 -21.37,-22.3357 19.59,-0.1641 25.75,0 40.63,0.1601 -0.16,2.2618 -0.32,5.8282 -1.62,9.5506 z m 15.06,-42.2498 c -0.81,-6.4687 -0.98,-8.0859 -1.3,-14.3984 l -0.98,-1.1367 c -2.74,-1.4571 -11.48,-6.1485 -25.9,-6.1485 -26.53,0 -43.21,15.2149 -43.21,43.3789 0,30.1015 18.12,44.8325 39.34,44.8325 12.79,0 21.68,-5.34 26.54,-11.164 9.22,-11.008 8.9,-27.0317 8.75,-34.1567 l -1.14,-0.9688 c -25.25,0.1641 -29.62,0.1641 -56.17,0 0.17,-5.668 0.66,-13.5898 6.16,-20.2383 6.64,-7.9258 15.86,-8.7344 20.88,-8.7344 4.69,0 9.55,0.8086 14.08,2.4297 5.98,2.4219 9.55,5.3399 11.65,7.1211 l 1.3,-0.8164" /><path
           id="path152"
           style="fill:#656263;fill-opacity:1;fill-rule:nonzero;stroke:none"
           d="m 3907.66,40.6211 c -7.77,-0.1602 -8.74,-0.1602 -16.2,-0.6484 l -1.12,1.1367 c 0,1.7812 0.15,3.5547 0.15,5.3359 0.16,7.9414 0.16,15.8633 0.16,23.793 0,24.9219 -0.16,26.5469 -0.96,29.9417 -3.08,12.304 -12.3,12.304 -14.57,12.304 -9.7,0 -17.15,-5.668 -21.53,-9.066 -0.16,-28.1602 0.16,-42.8907 1.3,-61.8242 l -0.97,-0.9727 c -7.94,-0.1602 -9.22,-0.1602 -16.99,-0.6484 l -0.83,1.1367 c 0.18,9.0625 0.49,17.7969 0.49,29.7812 0,25.8946 -1.12,39.6524 -1.93,50.4964 l 0.97,1.133 c 8.09,1.457 9.55,1.781 17.15,3.238 l 1.14,-1.133 -0.17,-8.418 c 4.22,2.918 14.26,10.031 28.49,10.031 4.05,0 9.07,-0.636 13.43,-3.07 4.22,-2.43 7.62,-6.152 9.4,-10.516 2.1,-4.859 2.25,-9.722 2.42,-19.7536 V 73.9648 c 0.49,-18.9414 0.64,-26.2265 1.13,-32.371 l -0.96,-0.9727" /><path
           id="path154"
           style="fill:#656263;fill-opacity:1;fill-rule:nonzero;stroke:none"
           d="m 3970.97,89.6641 c 6.47,-2.1055 21.2,-7.1211 21.2,-24.2813 0,-6.4765 -2.43,-13.7578 -9.07,-19.0976 -8.58,-7.2813 -20.07,-7.7696 -25.9,-7.7696 -8.73,0 -16.02,1.6211 -22.17,4.0469 -0.8,0.3281 -1.61,0.6445 -2.42,0.9727 l -0.82,1.4531 c 0.65,6.3164 0.65,7.125 0.97,13.6015 l 1.62,0.4805 c 2.92,-2.2617 10.03,-7.7656 22.5,-7.7656 12.79,0 17.49,7.125 17.49,12.1406 0,7.4453 -6.97,9.8711 -16.84,13.1094 l -5.18,1.7734 c -6.64,2.1094 -21.21,6.8047 -21.21,23.4809 0,16.664 14.57,24.918 32.7,24.918 11.97,0 20.4,-3.399 23.31,-4.536 l 0.8,-1.132 c -0.64,-5.985 -0.8,-6.633 -1.29,-12.782 l -1.45,-0.644 c -4.05,2.586 -10.36,6.472 -20.88,6.472 -2.27,0 -4.54,-0.16 -6.97,-0.812 -4.85,-1.297 -8.89,-4.695 -8.89,-9.703 0,-6.965 6.63,-9.0705 16.67,-12.1447 l 5.83,-1.7812" /><path
           id="path156"
           style="fill:#656263;fill-opacity:1;fill-rule:nonzero;stroke:none"
           d="m 4074.89,59.7227 c -0.65,-6.9649 -0.81,-7.7696 -1.3,-14.4063 l -1.14,-1.1328 c -4.69,-2.2695 -10.99,-5.5078 -22.33,-5.5078 -24.44,0 -40.3,17.6406 -40.3,42.8945 0,25.7347 15.54,45.1567 40.62,45.1567 10.53,0 17.98,-3.399 22.18,-5.18 l 0.64,-1.125 c -0.64,-5.836 -0.81,-7.938 -1.13,-12.789 l -1.29,-0.653 c -5.35,3.887 -11.49,6.313 -17.96,6.313 -13.44,0 -25.26,-10.363 -25.26,-31.0742 0,-22.0196 12.46,-29.9454 25.09,-29.9454 11.01,0 17.81,5.6641 20.88,8.0977 l 1.3,-0.6484" /><path
           id="path158"
           style="fill:#656263;fill-opacity:1;fill-rule:nonzero;stroke:none"
           d="m 4166.35,40.6211 c -7.77,-0.1602 -8.74,-0.1602 -16.19,-0.6484 l -1.13,1.1367 0.15,5.3359 c 0.17,8.418 0.17,17 0.17,25.4102 l -0.17,17.3203 c 0,3.7226 0,7.4492 -0.8,11.0042 -1.79,7.453 -6.31,12.304 -14.57,12.304 -9.23,0 -16.35,-5.179 -21.69,-9.066 -0.16,-28.1602 0.17,-42.8907 1.14,-61.8242 l -0.82,-0.9727 c -7.44,-0.1602 -9.38,-0.1602 -17.3,-0.6484 l -0.83,1.1367 c 0.34,11.4922 0.83,26.0547 0.83,57.1328 0,13.5938 -0.18,27.1878 -0.35,40.7848 -0.31,14.243 -0.8,18.942 -1.28,26.227 l 0.8,0.969 c 7.77,1.293 10.36,1.781 17.65,3.402 l 0.97,-1.141 c -0.97,-17.316 -0.97,-34.796 -0.97,-52.277 5.19,3.398 15.37,10.031 28.97,10.031 3.73,0 7.45,-0.48 10.84,-1.937 7.28,-2.914 11.66,-8.738 13.29,-15.375 0.8,-3.238 0.8,-5.18 1.12,-16.0276 V 73.9648 l 0.17,-7.6093 c 0.32,-13.5977 0.32,-15.8555 0.96,-24.7617 l -0.96,-0.9727" /><path
           id="path160"
           style="fill:#656263;fill-opacity:1;fill-rule:nonzero;stroke:none"
           d="m 4239.19,85.6211 c -16.34,-2.4336 -31.54,-4.7031 -31.54,-19.1016 0,-0.8125 0,-14.7265 15.37,-14.7265 10.04,0 15.86,5.4961 17.63,7.1133 v 27.0312 z m 18.13,-11.8164 c 0,-20.0742 0.17,-21.8516 0.98,-32.3672 l -0.81,-0.8164 c -7.61,-0.1602 -8.9,-0.3242 -16.35,-0.6484 l -0.64,0.9726 0.15,5.8281 c -3.07,-2.4257 -10.36,-8.2578 -22.64,-8.2578 -16.2,0 -27.53,11.0039 -27.53,27.0313 0,21.6875 18.12,28.6484 47.26,32.0469 l 2.76,0.3281 c 0,4.3671 0,7.4371 -1.46,10.0271 -1.62,2.918 -5.35,5.996 -13.43,5.996 -10.53,0 -17.82,-3.242 -24.6,-6.152 l -1.3,0.805 c 0.32,7.453 0.32,8.418 0.49,11.824 l 0.97,0.965 c 9.06,3.238 18.45,5.34 28,5.34 11.97,0 23.62,-4.047 27.02,-16.668 1.13,-4.536 1.13,-13.434 1.13,-20.2348 V 73.8047" /><path
           id="path162"
           style="fill:#656263;fill-opacity:1;fill-rule:nonzero;stroke:none"
           d="m 4305.58,40.4609 c -7.45,0 -8.9,0 -17.47,-0.4882 l -0.82,1.1367 c 0.82,16.9922 0.82,34.4726 0.82,51.6289 0,8.5777 0,11.4887 -0.17,18.6167 -4.05,-0.167 -8.09,-0.167 -11.34,-0.167 l -0.96,0.976 c 0.33,4.531 0.47,6.149 0.65,11.652 l 0.97,0.969 c 4.85,-0.16 8.09,-0.32 10.36,-0.32 l -0.17,10.676 c 0,8.097 0,10.039 0.49,12.949 3.72,18.773 23.79,18.773 28.32,18.773 2.43,0 4.05,-0.152 6.15,-0.316 l 0.81,-1.137 c -0.64,-4.531 -0.81,-6.633 -1.13,-11.648 l -1.14,-0.813 c -1.45,0.321 -2.59,0.649 -4.36,0.649 -3.41,0 -7.13,-0.649 -9.71,-4.86 -2.59,-4.047 -2.59,-8.578 -2.43,-19.422 v -4.851 c 0.33,0 14.4,0.32 16.03,0.32 l 0.81,-0.969 c -0.34,-5.179 -0.49,-6.472 -0.66,-11.492 l -0.96,-0.969 c -6.96,0.161 -8.42,0.161 -14.89,0.161 0,-21.5316 0.16,-43.2152 1.28,-64.7426 0,-1.6211 0.17,-3.4062 0.33,-5.1796 l -0.81,-1.1329" /><path
           id="path164"
           style="fill:#656263;fill-opacity:1;fill-rule:nonzero;stroke:none"
           d="m 4377.13,53.2461 c -0.49,-5.3359 -0.49,-6.4727 -0.66,-11.1719 l -0.81,-0.9648 c -3.38,-0.8125 -6.15,-1.4571 -12.13,-1.4571 -3.89,0 -14.08,0 -19.09,8.4141 -2.93,4.6914 -2.93,8.5781 -2.93,27.6758 l 0.34,35.6128 c -5.67,0 -5.83,-0.167 -11.65,-0.324 l -0.66,0.965 c 0.32,5.184 0.32,6.477 0.32,11.652 l 0.98,0.977 c 3.56,0 5.66,-0.16 11.01,0 -0.17,3.398 -0.17,6.961 -0.17,10.355 -0.17,3.083 -0.32,6.157 -0.49,9.231 l 0.81,1.133 c 7.29,1.781 9.06,2.269 16.52,4.531 l 1.12,-0.809 c -0.49,-10.687 -0.64,-12.789 -0.64,-24.601 6.8,0.16 8.74,0.16 17.96,0.48 l 0.81,-0.968 c -0.32,-4.211 -0.48,-5.989 -0.48,-11.493 l -0.82,-0.968 c -8.08,0.16 -9.06,0.32 -17.63,0.32 l -0.32,-30.1016 c 0.16,-1.9453 0.16,-11.1719 0.16,-13.4336 0,-11.8164 1.45,-15.543 9.55,-15.543 3.4,0 5.99,0.8125 7.78,1.457 l 1.12,-0.9687" /><path
           id="path166"
           style="fill:#656263;fill-opacity:1;fill-rule:nonzero;stroke:none"
           d="m 4449.32,102.449 c -3.23,8.906 -10.36,12.625 -17.64,12.625 -9.06,0 -19.75,-6.148 -21.37,-22.3357 19.59,-0.1641 25.74,0 40.63,0.1601 -0.16,2.2618 -0.32,5.8282 -1.62,9.5506 z m 15.06,-42.2498 c -0.82,-6.4687 -0.98,-8.0859 -1.3,-14.3984 l -0.98,-1.1367 c -2.74,-1.4571 -11.48,-6.1485 -25.9,-6.1485 -26.53,0 -43.21,15.2149 -43.21,43.3789 0,30.1015 18.12,44.8325 39.33,44.8325 12.8,0 21.69,-5.34 26.55,-11.164 9.22,-11.008 8.9,-27.0317 8.75,-34.1567 l -1.15,-0.9688 c -25.24,0.1641 -29.61,0.1641 -56.16,0 0.17,-5.668 0.66,-13.5898 6.15,-20.2383 6.65,-7.9258 15.86,-8.7344 20.88,-8.7344 4.7,0 9.55,0.8086 14.09,2.4297 5.98,2.4219 9.55,5.3399 11.65,7.1211 l 1.3,-0.8164" /><path
           id="path168"
           style="fill:#656263;fill-opacity:1;fill-rule:nonzero;stroke:none"
           d="m 4563.13,40.6211 c -7.77,-0.1602 -8.75,-0.1602 -16.2,-0.6484 l -1.12,1.1367 c 0,1.7812 0.15,3.5547 0.15,5.3359 0.16,7.9414 0.16,15.8633 0.16,23.793 0,24.9219 -0.16,26.5469 -0.96,29.9417 -3.08,12.304 -12.3,12.304 -14.57,12.304 -9.7,0 -17.15,-5.668 -21.53,-9.066 -0.16,-28.1602 0.16,-42.8907 1.3,-61.8242 l -0.98,-0.9727 c -7.93,-0.1602 -9.21,-0.1602 -16.98,-0.6484 l -0.83,1.1367 c 0.18,9.0625 0.49,17.7969 0.49,29.7812 0,25.8946 -1.12,39.6524 -1.93,50.4964 l 0.96,1.133 c 8.1,1.457 9.55,1.781 17.16,3.238 l 1.13,-1.133 -0.16,-8.418 c 4.22,2.918 14.26,10.031 28.49,10.031 4.05,0 9.07,-0.636 13.43,-3.07 4.22,-2.43 7.62,-6.152 9.4,-10.516 2.1,-4.859 2.25,-9.722 2.42,-19.7536 V 73.9648 c 0.49,-18.9414 0.64,-26.2265 1.13,-32.371 l -0.96,-0.9727" /><path
           id="path170"
           style="fill:#e20571;fill-opacity:1;fill-rule:nonzero;stroke:none"
           d="m 4645.5,61.6367 c 0,-12.7929 10.37,-23.1758 23.16,-23.1758 h 256.92 c 12.79,0 23.16,10.3829 23.16,23.1758 V 318.535 c 0,12.805 -10.37,23.18 -23.16,23.18 h -256.92 c -12.79,0 -23.16,-10.375 -23.16,-23.18 V 61.6367" /><path
           id="path172"
           style="fill:#ffffff;fill-opacity:1;fill-rule:nonzero;stroke:none"
           d="m 4813.83,245.258 h -35.02 c -1.74,-20.297 -3.41,-37.563 -5.03,-50.528 -1.62,-12.957 -3.17,-22.82 -4.65,-32.156 -1.57,-9.32 -3.14,-17.832 -4.75,-25.496 -1.33,-6 -3.2,-10.64 -5.8,-14.008 -2.54,-3.382 -6.27,-5.726 -11.17,-7.047 -4.09,-0.996 -8.1,-0.183 -12.13,2.422 -3.95,2.629 -6.32,5.758 -7.16,9.403 -0.6,2.699 -0.77,4.988 -0.45,6.871 0.25,1.875 0.81,3.605 1.66,5.222 0.82,1.606 1.71,3.063 2.75,4.407 0.95,1.3 2.02,2.601 3.13,3.922 0.36,0.406 2.09,2.468 5.29,6.195 3.19,3.734 5.54,7.144 7.2,10.238 1.58,3.063 5.08,9.828 6.84,18.25 1.79,8.426 5.37,37.246 5.3,62.305 -2.68,0 -14.72,0 -14.72,0 -4.16,0 -8.22,-1.363 -12.03,-3.356 -3.72,-1.953 -7.01,-5.254 -8.48,-7.132 -1.56,-1.942 -5.58,-8.438 -6.54,-9.68 -0.94,-1.262 -2.85,-4.152 -4.31,-3.707 -1.58,0.504 -1.24,2.273 -0.99,3.707 0.28,1.414 3.15,8.672 5.3,14.129 2.19,5.511 5.11,10.832 8.84,15.976 2.89,4.371 6.87,7.461 11.8,10.598 4.98,3.207 10.7,4.793 17.3,4.793 0,0 105.37,0 107.27,0 1.87,0 11.94,-0.801 11.94,-12.563 0,-11.753 -10.7,-12.765 -11.94,-12.765 -1.25,0 -30.47,0 -30.47,0 -2.54,-24.141 -3.8,-49.047 -3.8,-73.477 0,-4.433 0.75,-8.781 2.28,-13.004 1.52,-4.257 3.39,-7.484 5.6,-9.672 2.88,-2.652 6.3,-4.335 10.4,-5.105 4.15,-0.746 8.29,0.527 12.5,3.848 2.34,1.843 4.02,3.906 5.13,6.195 1.05,2.336 1.72,4.59 2.03,6.684 0.29,2.14 0.76,5.132 0.84,5.855 0.08,0.723 -0.06,3.367 2.95,3.598 3.01,0.23 3.31,-2.438 3.6,-5.332 0.25,-2.907 -1.3,-13.68 -3.72,-20.375 -2.43,-6.739 -5.35,-12.121 -8.68,-16.192 -3.36,-4.121 -6.61,-7.058 -9.82,-8.863 -3.66,-2.223 -7.94,-3.559 -12.75,-4.023 -4.91,-0.454 -9.37,0.679 -13.37,3.394 -6.67,4.871 -11.78,12.484 -15.18,22.859 -1.99,6.079 -3.01,14.059 -3.23,24.016 -0.3,9.941 0.03,19.649 0.95,29.141 l 5.29,50.453" /></g></g></g></svg>
