<?xml version="1.0" encoding="UTF-8" standalone="no"?>
<svg
   viewBox="0 0 590 580"
   version="1.1"
   id="svg959"
   sodipodi:docname="maze.svg"
   inkscape:version="1.1.1 (c3084ef, 2021-09-22)"
   xmlns:inkscape="http://www.inkscape.org/namespaces/inkscape"
   xmlns:sodipodi="http://sodipodi.sourceforge.net/DTD/sodipodi-0.dtd"
   xmlns="http://www.w3.org/2000/svg"
   xmlns:svg="http://www.w3.org/2000/svg">
  <defs
     id="defs963" />
  <sodipodi:namedview
     id="namedview961"
     pagecolor="#ffffff"
     bordercolor="#999999"
     borderopacity="1"
     inkscape:pageshadow="0"
     inkscape:pageopacity="0"
     inkscape:pagecheckerboard="0"
     showgrid="false"
     inkscape:zoom="1.2396552"
     inkscape:cx="53.64395"
     inkscape:cy="299.68011"
     inkscape:window-width="1296"
     inkscape:window-height="969"
     inkscape:window-x="546"
     inkscape:window-y="145"
     inkscape:window-maximized="0"
     inkscape:current-layer="svg959" />
  <g
     transform="translate(-453.46 -459.48)"
     id="g957">
    <path
       d="m463.46 463.48v48.305h48.305v-28.983h-28.983v9.661h19.322v9.661h-28.983v-28.983h48.305v96.61h28.983v-48.305h-9.661v38.644h-9.661v-48.305h28.983v19.322h28.983v-28.983h-9.661v19.322h-9.661v-28.983h28.983v38.644l9.661-1.3e-4v-48.305h-67.627v9.661h19.322v9.661h-28.983v-28.983h86.949v106.27h-38.644v28.983h77.288v38.644h28.983v-9.661h-19.322v-9.661h28.983v19.322h19.322v38.644h48.305v-106.27h-48.305v9.661h38.644v86.949h-28.983v-38.644h-19.322v-19.322h-38.644v-77.288h-28.983v28.983h9.661v-19.322h9.661v48.305h-9.661v-19.322h-9.661v19.322h-48.305v-9.661h38.644v-57.966h57.966v-48.305h-48.305v28.983h28.983v-9.661h-19.322v-9.661h28.983v28.983h-48.305v-48.305h67.627v57.966h9.661v-19.322h19.322v-28.983h-9.661v19.322h-9.661v-28.983h28.983v19.322h86.949v-9.661h-77.288v-9.661h86.949v19.322h9.661v-19.322h164.24v28.983h-96.61v9.661h96.61v19.322h9.6611v-57.966h9.661v67.627h-28.983v-19.322h-96.61v-28.983h96.61v-9.661h-144.92v9.661h38.644v38.644h57.966v28.983h-48.305v-9.661h38.644v-9.661h-48.305v28.983h67.627v-38.644h28.983v48.305h-9.661v-38.644h-9.661v38.644h-77.288v9.661h106.27v-38.644h28.983v28.983h-9.661v-19.322h-9.6611v28.983h19.322v28.983h-38.644v38.644h-19.322v38.644h-9.661v-48.305h19.322v-9.661h-19.322v-28.983h9.661v19.322h9.661v-19.322h38.644v-9.661h-67.627v19.322h-9.661v-19.322h-48.305v57.966h-77.288v28.983l9.661 1.3e-4v-19.322h9.661v19.322h106.27v-38.644h-9.661v28.983h-86.949v-9.661h57.966v-57.966h28.983v9.661h-19.322v48.305h9.661v-38.644h9.661v9.661h9.661v-9.661h9.661v115.93h38.644v57.966h19.322v28.983h-106.27v-57.966h-48.305v9.661h19.322v19.322h9.661v-19.322h9.661v48.305h-9.661v-19.322h-9.661v77.288l-202.88 0.01206v-9.661l19.322-0.01205v-19.322h9.661v19.322h9.661v-96.61h96.61v-28.983h-115.93v-19.322h-28.983v38.644h-38.644v48.305h38.644v28.983h-19.322v19.322h-38.644v96.61l-48.305 0.01206v-19.334l-19.322 0.01205v-96.622h-9.661v125.59h9.661v-19.31h9.661v19.31h86.949v-86.949h-9.661v77.288l-9.661 0.01206v-86.949h28.983v96.598h9.661v-115.93h19.322v-48.305h-38.644v-28.983h57.966v-9.661h-19.322v-28.983h9.661v19.322h115.93v9.661h-96.61v19.322h-57.966v9.661h57.966v48.305h-9.661v-38.644h-9.661v57.966h-19.322v28.983l19.322 0.01206v57.954h28.983v-38.632h48.305v77.288h9.661v-86.961h-67.627v38.644l-9.661 0.01205v-48.305h86.949v96.61h9.661v-96.61l86.949 4e-5v9.649l-77.288-1.1e-4v48.305l9.661 1.2e-4v-38.644h9.661v67.627h-9.661v-19.322h-9.661v28.995h28.983v-77.3h57.966v-77.288h86.949v67.627l-9.661 0.01206v-57.978h-67.627v67.627h28.983v-19.31h-9.661v9.649h-9.661v-48.305h9.661v28.983h9.661v-28.983h28.983v57.966h28.983v-77.288h38.644v-86.949h-9.6611v38.644h-9.661v-67.627h19.322v-28.983h-9.6611v19.322h-38.644v9.661h19.322v9.661h-28.983v-28.983h38.644v-9.661h-19.322v-28.983h19.322v-38.644h28.983v9.661h-19.322v19.322h9.6611v-9.661h9.661v28.983h-9.661v-9.661h-9.6611v9.661h-19.322v9.661h38.644v48.305h-19.322v9.661h19.322v106.27h-38.644v28.983h28.983l-0.1878-9.6606h-19.134v-9.6613h28.983v106.27h-115.93v9.661l57.966 0.01205v28.971h-57.966v9.6609h67.627v-38.632h48.305v48.293h-9.661v-38.644h-28.983v9.673h19.322v38.632l28.983 1e-4v-570l-570 1.3e-4zm270.51 38.644v19.322h-19.322v19.322h-38.644v67.627h38.644v19.322h9.661v-19.322h9.661v57.966h9.661v-67.627h-57.966v-48.305h28.983v9.661h-19.322v28.983h9.661v-19.322h67.627v38.644h19.322v96.61h38.644v19.322h9.661v-19.322h48.305v9.661h-38.644v19.322h-28.983v-19.322h-38.644v-96.61h-9.661v106.27h38.644v9.661h-48.305v-38.644h-96.61v-28.983h28.983v9.661h-19.322v9.661h28.983v-28.983h-48.305v48.305h96.61v28.983h-48.305v-9.661h38.644v-9.661h-96.61v-96.61h-67.627v38.644h-28.983v-38.644h-19.322v-19.322h-9.661v38.644h-9.661v-48.305h48.305v9.661h-19.322v9.661h19.322v38.644h9.661v-96.61h28.983v9.661h-19.322v9.6609h28.983v-28.983h-48.305v38.644h-48.305v-38.644h-28.983v28.983h9.661v-19.322h9.661v96.61h28.983v-19.322h9.661v38.644h38.644v19.322h9.661v-19.322h28.983v38.644h9.661v-67.627h-28.983v9.661h19.322v9.661h-28.983v-28.983h48.305v86.949h-28.983v-38.644h-9.661v57.966h-48.305v-38.644h-9.661v19.322h-48.305v-9.661h19.322v-28.983h-9.661v19.322h-28.983v-164.24h38.644v-9.661h-48.305v512.03l531.36-1e-4v-28.983h-9.661v19.322h-86.949v-28.971h57.966v-9.673h-77.288v-48.293l115.93-0.01206v-38.632h9.661v48.293h-115.93v28.983h9.661v-19.31l115.93-0.01206v-67.627h-28.983v38.644l-48.305 0.01206v-57.978h-9.661v57.966h-77.288v86.949h28.983v-9.6609h-19.322v-67.615h9.661v57.966h19.322v28.971h-202.88v-48.293l38.644-0.01205v-38.632h9.661v67.615h-28.983v-9.649h19.322v-9.673h-28.983v28.983h144.92v-86.949h-9.661v77.288h-86.949v-77.288h-28.983v38.644l-48.305 0.01206v-57.978h-9.661v77.288h-96.61v9.673h106.27v-19.322h9.661v48.293h-144.92v-19.322h-9.661v19.322h-28.983v-19.322h-9.661v19.322h-9.661v-28.971h28.983v19.31h9.661v-19.31h28.983v19.31h125.59v-9.6609h-115.93v-19.322h-38.644v-96.61h-9.661v96.61h-28.983v-144.92h28.983v28.983h-9.661v-19.322h-9.661v125.59h9.661v-96.598l19.322-0.01205v-125.59h-28.983v67.627h9.661v-57.966h9.661v67.627h-28.983v-86.949h48.305v96.61h19.322v96.61l19.322 0.01206v19.31h9.661v-86.949h-9.661v57.966h-9.661v-67.627h28.983v96.61h9.661v-96.61h38.644v-9.661h-77.288v-19.322h-19.322v-96.61h-57.966v-28.983h9.661v19.322h57.966v96.61h19.322v19.322h28.983v-67.627h-9.661v57.966h-9.661v-19.322h-19.322v-67.627h77.288v-9.661h-19.322v-9.661h28.983v28.983h-77.288v48.305h9.661v-38.644l28.983-1.3e-4v77.288h48.305v-9.661h-38.644v-67.627h38.644v-38.644h48.305v19.322h115.93v48.305h-96.61v67.627h86.949v-19.322h48.305v28.983h-28.983v-9.6614h19.322v-9.661h-28.983v19.322h-96.61v9.6606h144.92v-48.305h-106.27v9.661h38.644v9.661h-48.305v-28.983h115.93v-28.983h-19.322v-28.983h57.966v-9.661h-19.322v-9.661h28.983v77.288h48.305v-48.305h-28.983v28.983h9.661v-19.322h9.661v28.983h-28.983v-48.305h48.305v57.966h28.983v-9.661h-19.322v-57.966h-57.966v-38.644h-9.661v19.322h-38.644v19.322h-38.644v48.305h19.322v9.661h-115.93v38.644h-9.661v-48.305h96.61v-57.966h38.644v-19.322h38.644v-19.322h28.983v38.644h9.661v-48.305h-135.25v-48.305h77.288v-48.305h-28.983v28.983h9.661v-19.322h9.661v28.983h-28.983v-48.305h38.644v-48.305h-9.661v19.322h-38.644v9.661h38.644v9.661h-48.305v-28.983h38.644v-38.644h9.661v19.322h9.661v-28.983h-28.983v38.644h-38.644v86.949h9.661v-38.644h9.661v48.305h-28.983v-38.644h-19.322v-38.644h-57.966v-28.983h19.322v-28.983h-9.661zm19.322 0v38.644h-19.322v9.661h57.966v38.644h9.661v-57.966h38.644v-28.983h-9.661v19.322h-57.966v9.661h19.322v9.661h-28.983v-28.983h57.966v-9.661h-67.627zm-270.51 77.288v106.27h9.661v-19.322h19.322v-9.661h-19.322v-77.288h-9.661zm38.644 77.288v48.305h9.661v-19.322h28.983v38.644h28.983v-28.983h-9.661v19.322h-9.661v-38.644h-38.644v-19.322h-9.661z"
       id="path955" />
  </g>
  <g
     transform="matrix(0.13333334,0,0,-0.13333334,161.66566,422.32456)"
     id="g825">
    <path
       inkscape:connector-curvature="0"
       id="path827"
       style="fill:#e20571;fill-opacity:1;fill-rule:nonzero;stroke:none"
       d="M 0,152.828 C 0,68.4805 68.3789,0 152.828,0 H 1847.18 C 1931.52,0 2000,68.4805 2000,152.828 V 1847.12 c 0,84.45 -68.48,152.83 -152.82,152.83 H 152.828 C 68.3789,1999.95 0,1931.57 0,1847.12 V 152.828" />
    <path
       inkscape:connector-curvature="0"
       id="path829"
       style="fill:#ffffff;fill-opacity:1;fill-rule:nonzero;stroke:none"
       d="M 1110.14,1363.84 H 879.254 C 867.793,1229.96 856.73,1116.13 846.059,1030.69 835.391,945.238 825.117,880.051 815.445,818.512 804.977,756.988 794.605,700.922 784.137,650.41 c -8.832,-39.601 -21.242,-70.262 -38.309,-92.39 -16.769,-22.329 -41.332,-37.821 -73.637,-46.45 -27.039,-6.539 -53.484,-1.289 -79.984,15.981 -26.098,17.258 -41.68,38.008 -47.387,62.027 -3.82,17.762 -4.961,32.844 -2.828,45.242 1.637,12.321 5.309,23.821 10.867,34.45 5.407,10.609 11.313,20.14 18.211,29.07 6.301,8.531 13.293,17.172 20.539,25.801 2.434,2.781 13.895,16.281 34.934,40.89 21.137,24.707 36.57,47.141 47.437,67.578 10.469,20.141 33.641,64.801 45.254,120.282 11.661,55.569 35.375,245.709 34.93,410.949 h -97.152 c -27.395,0 -54.137,-9.04 -79.34,-22.14 -24.512,-12.9 -46.149,-34.63 -55.875,-47.03 -10.27,-12.81 -36.817,-55.68 -43.219,-63.82 -6.101,-8.33 -18.707,-27.48 -28.328,-24.51 -10.477,3.37 -8.141,15.09 -6.504,24.51 1.836,9.33 20.742,57.26 34.832,93.19 14.543,36.42 33.844,71.45 58.453,105.39 19.004,28.78 45.199,49.22 77.703,69.76 32.946,21.24 70.657,31.76 114.028,31.76 h 707.568 c 12.3,0 78.8,-5.26 78.8,-82.96 0,-77.51 -70.67,-84.15 -78.8,-84.15 h -200.86 c -16.87,-159.18 -25.11,-323.42 -25.11,-484.59 0,-29.27 4.86,-57.949 14.88,-85.75 10.23,-28.07 22.53,-49.41 37.03,-63.711 19.05,-17.457 41.58,-28.668 68.57,-33.738 27.39,-4.86 54.68,3.379 82.57,25.41 15.28,12.211 26.39,25.711 33.74,40.777 6.84,15.403 11.21,30.282 13.4,44.172 1.77,13.988 4.96,33.84 5.45,38.61 0.59,4.75 -0.3,22.128 19.55,23.609 19.85,1.59 21.83,-15.969 23.62,-35.129 1.69,-19.051 -8.54,-90.211 -24.41,-134.371 -15.98,-44.449 -35.34,-79.879 -57.26,-106.777 -22.13,-27.192 -43.57,-46.543 -64.8,-58.442 -24.22,-14.59 -52.31,-23.43 -84.16,-26.512 -32.35,-3.078 -61.72,4.473 -88.12,22.34 -43.96,32.141 -77.71,82.364 -100.04,150.832 -13.19,40 -19.84,92.692 -21.34,158.301 -2.08,65.59 0.21,129.598 6.26,192.209 l 34.84,332.76" />
  </g>
</svg>
